<?xml version="1.0" encoding="utf-8"?>
<!-- Generator: Adobe Illustrator 17.0.0, SVG Export Plug-In . SVG Version: 6.00 Build 0)  -->
<!DOCTYPE svg PUBLIC "-//W3C//DTD SVG 1.1//EN" "http://www.w3.org/Graphics/SVG/1.1/DTD/svg11.dtd">
<svg version="1.1" id="Layer_1" xmlns="http://www.w3.org/2000/svg" xmlns:xlink="http://www.w3.org/1999/xlink" x="0px" y="0px"
	 width="26px" height="26px" viewBox="0 0 26 26" enable-background="new 0 0 26 26" xml:space="preserve">
<g>
	<g>
		<path fill="#7CCBFC" d="M13.531,7.231c-0.15-0.149-0.328-0.226-0.53-0.226s-0.381,0.077-0.53,0.226l-0.78,0.781
			c-0.151,0.151-0.226,0.326-0.226,0.527c0,0.2,0.075,0.375,0.226,0.525l2.637,2.637H7.739c-0.202,0-0.376,0.07-0.519,0.213
			c-0.142,0.143-0.215,0.317-0.215,0.518v1.123c0,0.213,0.073,0.391,0.215,0.534c0.143,0.143,0.317,0.215,0.519,0.215h6.588
			l-2.637,2.635c-0.151,0.144-0.226,0.318-0.226,0.522c0,0.204,0.075,0.38,0.226,0.531l0.78,0.779c0.15,0.15,0.328,0.226,0.53,0.226
			s0.38-0.076,0.53-0.226l5.24-5.249c0.15-0.15,0.226-0.325,0.226-0.522c0-0.197-0.076-0.372-0.226-0.522L13.531,7.231z M13,0
			C5.82,0,0,5.82,0,13c0,7.179,5.82,13,13,13s13-5.82,13-13S20.18,0,13,0z M13,23.4C7.256,23.4,2.6,18.744,2.6,13
			C2.6,7.257,7.256,2.6,13,2.6S23.4,7.257,23.4,13C23.4,18.744,18.744,23.4,13,23.4z"/>
	</g>
</g>
</svg>
