<?xml version="1.0" encoding="utf-8"?>
<!-- Generator: Adobe Illustrator 17.0.0, SVG Export Plug-In . SVG Version: 6.00 Build 0)  -->
<!DOCTYPE svg PUBLIC "-//W3C//DTD SVG 1.1//EN" "http://www.w3.org/Graphics/SVG/1.1/DTD/svg11.dtd">
<svg version="1.1" id="Layer_1" xmlns="http://www.w3.org/2000/svg" xmlns:xlink="http://www.w3.org/1999/xlink" x="0px" y="0px"
	 width="26px" height="26px" viewBox="0 0 26 26" enable-background="new 0 0 26 26" xml:space="preserve">
<g>
	<g>
		<path fill-rule="evenodd" clip-rule="evenodd" fill="#212C43" d="M13.531,7.231c-0.15-0.149-0.328-0.226-0.53-0.226
			c-0.202,0-0.38,0.077-0.53,0.226l-0.78,0.781c-0.151,0.151-0.226,0.326-0.226,0.526c0,0.2,0.075,0.375,0.226,0.525l2.637,2.637
			H7.739c-0.202,0-0.376,0.07-0.519,0.213c-0.142,0.143-0.215,0.317-0.215,0.519v1.123c0,0.213,0.073,0.391,0.215,0.534
			c0.143,0.144,0.317,0.215,0.519,0.215h6.588L11.69,16.94c-0.151,0.144-0.226,0.318-0.226,0.521c0,0.204,0.075,0.38,0.226,0.531
			l0.78,0.779c0.15,0.149,0.328,0.226,0.53,0.226c0.203,0,0.381-0.076,0.53-0.226l5.239-5.249c0.15-0.149,0.226-0.324,0.226-0.522
			c0-0.197-0.076-0.372-0.226-0.521L13.531,7.231z M13,0C5.82,0,0,5.821,0,13c0,7.179,5.82,13,13,13c7.18,0,13-5.821,13-13
			C26,5.821,20.18,0,13,0z M13,23.4C7.256,23.4,2.6,18.744,2.6,13C2.6,7.257,7.256,2.6,13,2.6c5.744,0,10.4,4.656,10.4,10.4
			C23.4,18.744,18.744,23.4,13,23.4z"/>
	</g>
</g>
</svg>
