<?xml version="1.0" encoding="utf-8"?>
<!-- Generator: Adobe Illustrator 17.0.0, SVG Export Plug-In . SVG Version: 6.00 Build 0)  -->
<!DOCTYPE svg PUBLIC "-//W3C//DTD SVG 1.1//EN" "http://www.w3.org/Graphics/SVG/1.1/DTD/svg11.dtd">
<svg version="1.1" id="Layer_1" xmlns="http://www.w3.org/2000/svg" xmlns:xlink="http://www.w3.org/1999/xlink" x="0px" y="0px"
	 width="16px" height="16px" viewBox="0 0 16 16" enable-background="new 0 0 16 16" xml:space="preserve">
<g>
	<path fill-rule="evenodd" clip-rule="evenodd" fill="#111728" d="M8,14.5c-3.584,0-6.5-2.916-6.5-6.5c0-3.584,2.916-6.5,6.5-6.5
		s6.5,2.916,6.5,6.5C14.5,11.584,11.584,14.5,8,14.5z"/>
	<path fill="#212C43" d="M8,3c2.761,0,5,2.239,5,5c0,2.761-2.239,5-5,5s-5-2.238-5-5C3,5.239,5.239,3,8,3 M8,0C3.589,0,0,3.589,0,8
		c0,4.411,3.589,8,8,8c4.411,0,8-3.589,8-8C16,3.589,12.411,0,8,0L8,0z"/>
</g>
</svg>
