<?xml version="1.0" encoding="utf-8"?>
<!-- Generator: Adobe Illustrator 17.0.0, SVG Export Plug-In . SVG Version: 6.00 Build 0)  -->
<!DOCTYPE svg PUBLIC "-//W3C//DTD SVG 1.1//EN" "http://www.w3.org/Graphics/SVG/1.1/DTD/svg11.dtd">
<svg version="1.1" id="Layer_1" xmlns="http://www.w3.org/2000/svg" xmlns:xlink="http://www.w3.org/1999/xlink" x="0px" y="0px"
	 width="36px" height="160px" viewBox="0 0 36 160" enable-background="new 0 0 36 160" xml:space="preserve">
<g>
	<g>
		<path fill-rule="evenodd" clip-rule="evenodd" fill="#83C8F0" d="M21,108.045V88.054l-10,9.961L21,108.045z M18,80.038
			c-9.941,0-18,8.059-18,18c0,9.941,8.059,18,18,18c9.941,0,18-8.059,18-18C36,88.097,27.941,80.038,18,80.038z M18,112.438
			c-7.953,0-14.4-6.447-14.4-14.4c0-7.953,6.447-14.4,14.4-14.4c7.953,0,14.4,6.447,14.4,14.4
			C32.4,105.991,25.953,112.438,18,112.438z"/>
	</g>
</g>
<g>
	<g>
		<path fill-rule="evenodd" clip-rule="evenodd" fill="#E9E8DD" d="M21,28.218V8.227l-10,9.961L21,28.218z M18,0.212
			c-9.941,0-18,8.059-18,18c0,9.941,8.059,18,18,18c9.941,0,18-8.059,18-18C36,8.271,27.941,0.212,18,0.212z M18,32.612
			c-7.953,0-14.4-6.447-14.4-14.4c0-7.953,6.447-14.4,14.4-14.4c7.953,0,14.4,6.447,14.4,14.4C32.4,26.165,25.953,32.612,18,32.612z
			"/>
	</g>
</g>
<g>
	<g>
		<path fill-rule="evenodd" clip-rule="evenodd" fill="#E9E8DD" d="M15,68.028l10-10.03l-10-9.961V68.028z M18,40.022
			c-9.941,0-18,8.059-18,18c0,9.941,8.059,18,18,18c9.941,0,18-8.059,18-18C36,48.081,27.941,40.022,18,40.022z M18,72.422
			c-7.953,0-14.4-6.447-14.4-14.4c0-7.953,6.447-14.4,14.4-14.4c7.953,0,14.4,6.447,14.4,14.4C32.4,65.975,25.953,72.422,18,72.422z
			"/>
	</g>
</g>
<g>
	<g>
		<path fill-rule="evenodd" clip-rule="evenodd" fill="#83C8F0" d="M15,148.045l10-10.03l-10-9.961V148.045z M18,120.039
			c-9.941,0-18,8.059-18,18c0,9.941,8.059,18,18,18c9.941,0,18-8.059,18-18C36,128.098,27.941,120.039,18,120.039z M18,152.439
			c-7.953,0-14.4-6.447-14.4-14.4c0-7.953,6.447-14.4,14.4-14.4c7.953,0,14.4,6.447,14.4,14.4
			C32.4,145.992,25.953,152.439,18,152.439z"/>
	</g>
</g>
</svg>
