<?xml version="1.0" encoding="utf-8"?>
<!-- Generator: Adobe Illustrator 17.0.0, SVG Export Plug-In . SVG Version: 6.00 Build 0)  -->
<!DOCTYPE svg PUBLIC "-//W3C//DTD SVG 1.1//EN" "http://www.w3.org/Graphics/SVG/1.1/DTD/svg11.dtd">
<svg version="1.1" id="Layer_1" xmlns="http://www.w3.org/2000/svg" xmlns:xlink="http://www.w3.org/1999/xlink" x="0px" y="0px"
	 width="20px" height="40px" viewBox="0 0 20 40" enable-background="new 0 0 20 40" xml:space="preserve">
<g>
	<g>
		<path fill-rule="evenodd" clip-rule="evenodd" fill="#FFFFFF" d="M10.409,5.562c-0.115-0.115-0.252-0.174-0.408-0.174
			c-0.155,0-0.293,0.059-0.408,0.174l-0.6,0.601C8.876,6.279,8.819,6.414,8.819,6.568s0.058,0.289,0.174,0.404L11.021,9H5.953
			C5.798,9,5.664,9.054,5.554,9.164c-0.109,0.11-0.165,0.244-0.165,0.399v0.864c0,0.164,0.056,0.301,0.165,0.411
			c0.11,0.11,0.244,0.165,0.399,0.165h5.068L8.993,13.03c-0.116,0.111-0.174,0.245-0.174,0.401c0,0.157,0.058,0.292,0.174,0.409
			l0.6,0.599c0.115,0.115,0.253,0.174,0.408,0.174c0.156,0,0.293-0.059,0.408-0.174l4.03-4.038c0.115-0.115,0.174-0.249,0.174-0.401
			c0-0.152-0.059-0.286-0.174-0.401L10.409,5.562z M10,0C4.477,0,0,4.477,0,10c0,5.523,4.477,10,10,10c5.523,0,10-4.477,10-10
			C20,4.477,15.523,0,10,0z M10,18c-4.418,0-8-3.581-8-8c0-4.418,3.582-8,8-8c4.418,0,8,3.582,8,8C18,14.419,14.418,18,10,18z"/>
	</g>
</g>
<g>
	<g>
		<path fill-rule="evenodd" clip-rule="evenodd" fill="#212C43" d="M10.409,25.562c-0.115-0.115-0.252-0.174-0.408-0.174
			c-0.155,0-0.293,0.059-0.408,0.174l-0.6,0.601c-0.116,0.116-0.174,0.251-0.174,0.405s0.058,0.289,0.174,0.404L11.021,29H5.953
			c-0.156,0-0.289,0.054-0.399,0.164c-0.109,0.11-0.165,0.244-0.165,0.399v0.864c0,0.164,0.056,0.301,0.165,0.411
			c0.11,0.11,0.244,0.165,0.399,0.165h5.068L8.993,33.03c-0.116,0.111-0.174,0.245-0.174,0.401c0,0.157,0.058,0.292,0.174,0.409
			l0.6,0.599c0.115,0.115,0.253,0.174,0.408,0.174c0.156,0,0.293-0.059,0.408-0.174l4.03-4.038c0.115-0.115,0.174-0.249,0.174-0.401
			c0-0.152-0.059-0.286-0.174-0.401L10.409,25.562z M10,20C4.477,20,0,24.477,0,30c0,5.523,4.477,10,10,10c5.523,0,10-4.477,10-10
			C20,24.477,15.523,20,10,20z M10,38c-4.418,0-8-3.581-8-8c0-4.418,3.582-8,8-8c4.418,0,8,3.582,8,8C18,34.419,14.418,38,10,38z"/>
	</g>
</g>
</svg>
