<?xml version="1.0" encoding="utf-8"?>
<!-- Generator: Adobe Illustrator 17.0.0, SVG Export Plug-In . SVG Version: 6.00 Build 0)  -->
<!DOCTYPE svg PUBLIC "-//W3C//DTD SVG 1.1//EN" "http://www.w3.org/Graphics/SVG/1.1/DTD/svg11.dtd">
<svg version="1.1" id="Layer_1" xmlns="http://www.w3.org/2000/svg" xmlns:xlink="http://www.w3.org/1999/xlink" x="0px" y="0px"
	 width="10px" height="10px" viewBox="0 0 10 10" enable-background="new 0 0 10 10" xml:space="preserve">
<path fill-rule="evenodd" clip-rule="evenodd" fill="#9AA0AE" d="M9.997,5c0,0.693-0.129,1.341-0.388,1.949
	c-0.258,0.607-0.616,1.137-1.07,1.589C8.084,8.99,7.554,9.346,6.949,9.607C6.343,9.868,5.695,9.998,5.001,9.998
	c-0.692,0-1.342-0.13-1.949-0.392C2.444,9.346,1.914,8.99,1.461,8.537c-0.452-0.452-0.81-0.981-1.07-1.589C0.13,6.341,0,5.693,0,5
	c0-0.693,0.13-1.341,0.391-1.949c0.26-0.608,0.618-1.136,1.07-1.589c0.454-0.453,0.983-0.809,1.591-1.071
	c0.607-0.26,1.257-0.39,1.949-0.39c0.693,0,1.342,0.13,1.948,0.39c0.605,0.262,1.135,0.618,1.59,1.071
	c0.455,0.453,0.812,0.981,1.07,1.589C9.868,3.658,9.997,4.306,9.997,5z M4.695,8.372c0.084,0.083,0.184,0.125,0.298,0.125
	c0.115,0,0.221-0.042,0.317-0.125L8.37,5.306C8.453,5.223,8.495,5.121,8.498,5C8.5,4.878,8.457,4.776,8.37,4.693L5.309,1.628
	C5.226,1.545,5.124,1.503,5.001,1.503c-0.12,0-0.222,0.042-0.306,0.125L4.232,2.091c-0.084,0.083-0.128,0.182-0.129,0.3
	C4.102,2.507,4.144,2.612,4.232,2.704l1.54,1.539H1.933c-0.12,0-0.222,0.041-0.306,0.122C1.544,4.446,1.502,4.547,1.502,4.668v0.651
	c0,0.121,0.044,0.225,0.129,0.31c0.086,0.085,0.186,0.128,0.303,0.128h3.839l-1.54,1.539C4.148,7.38,4.105,7.481,4.103,7.599
	C4.102,7.718,4.144,7.821,4.232,7.908L4.695,8.372L4.695,8.372z"/>
</svg>
