<?xml version="1.0" encoding="utf-8"?>
<!-- Generator: Adobe Illustrator 17.0.0, SVG Export Plug-In . SVG Version: 6.00 Build 0)  -->
<!DOCTYPE svg PUBLIC "-//W3C//DTD SVG 1.1//EN" "http://www.w3.org/Graphics/SVG/1.1/DTD/svg11.dtd">
<svg version="1.1" id="Layer_1" xmlns="http://www.w3.org/2000/svg" xmlns:xlink="http://www.w3.org/1999/xlink" x="0px" y="0px"
	 width="16px" height="13px" viewBox="0 0 16 13" enable-background="new 0 0 16 13" xml:space="preserve">
<path fill-rule="evenodd" clip-rule="evenodd" fill="#9AA0AE" d="M12.988,4.635c0,0.635-0.17,1.234-0.509,1.799
	c-0.34,0.564-0.803,1.055-1.39,1.472c-0.588,0.418-1.275,0.748-2.063,0.992C8.239,9.142,7.394,9.265,6.493,9.265
	c-0.206,0-0.411-0.008-0.614-0.025C5.676,9.223,5.477,9.205,5.282,9.183c-0.818,0.612-1.753,1.034-2.805,1.26
	c-0.111,0.023-0.224,0.043-0.338,0.063c-0.114,0.018-0.236,0.038-0.364,0.06c-0.067,0.011-0.127-0.007-0.18-0.053
	c-0.053-0.046-0.09-0.096-0.112-0.149v-0.017c-0.022-0.066-0.014-0.118,0.025-0.16c0.039-0.04,0.089-0.088,0.151-0.142
	c0.1-0.096,0.196-0.196,0.288-0.295C2.039,9.648,2.12,9.534,2.193,9.407c0.072-0.128,0.14-0.278,0.205-0.451
	c0.064-0.174,0.118-0.388,0.163-0.644c-0.785-0.422-1.408-0.953-1.87-1.59C0.228,6.085-0.002,5.39-0.002,4.635
	c0-0.644,0.171-1.248,0.513-1.809c0.342-0.561,0.807-1.052,1.394-1.469c0.588-0.417,1.273-0.749,2.058-0.993
	c0.784-0.244,1.628-0.367,2.53-0.367c0.901,0,1.746,0.123,2.533,0.367c0.788,0.244,1.475,0.576,2.063,0.993
	c0.587,0.416,1.05,0.908,1.39,1.469C12.818,3.387,12.988,3.991,12.988,4.635z M16.003,7.068c0,0.753-0.232,1.45-0.693,2.088
	c-0.462,0.637-1.086,1.166-1.87,1.59c0.044,0.255,0.097,0.47,0.158,0.642c0.061,0.174,0.132,0.323,0.213,0.453
	c0.081,0.126,0.164,0.241,0.25,0.34c0.086,0.101,0.18,0.199,0.28,0.297c0.055,0.055,0.104,0.105,0.146,0.151
	c0.042,0.047,0.051,0.096,0.029,0.151v0.017c-0.011,0.063-0.045,0.116-0.104,0.157c-0.059,0.042-0.121,0.055-0.188,0.045
	c-0.128-0.022-0.249-0.043-0.363-0.061c-0.114-0.018-0.227-0.038-0.338-0.061c-0.535-0.108-1.035-0.271-1.503-0.488
	c-0.467-0.215-0.902-0.474-1.302-0.773c-0.195,0.023-0.394,0.042-0.597,0.058c-0.203,0.015-0.408,0.025-0.614,0.025
	c-0.785,0-1.522-0.097-2.212-0.285c-0.69-0.189-1.316-0.445-1.878-0.765c0.033-0.022,0.071-0.043,0.112-0.065
	c0.042-0.021,0.079-0.043,0.113-0.065c0.284,0.032,0.567,0.048,0.852,0.048c1.096,0,2.123-0.153,3.08-0.46
	c0.957-0.307,1.787-0.725,2.488-1.26c0.702-0.534,1.254-1.163,1.657-1.885c0.404-0.72,0.605-1.497,0.605-2.326
	c0-0.222-0.017-0.448-0.05-0.682c0.535,0.423,0.956,0.898,1.264,1.422C15.847,5.903,16.003,6.467,16.003,7.068z"/>
</svg>
