<?xml version="1.0" encoding="utf-8"?>
<!-- Generator: Adobe Illustrator 17.0.0, SVG Export Plug-In . SVG Version: 6.00 Build 0)  -->
<!DOCTYPE svg PUBLIC "-//W3C//DTD SVG 1.1//EN" "http://www.w3.org/Graphics/SVG/1.1/DTD/svg11.dtd">
<svg version="1.1" id="Layer_1" xmlns="http://www.w3.org/2000/svg" xmlns:xlink="http://www.w3.org/1999/xlink" x="0px" y="0px"
	 width="26px" height="104px" viewBox="0 0 26 104" enable-background="new 0 0 26 104" xml:space="preserve">
<g>
	<g>
		<path fill-rule="evenodd" clip-rule="evenodd" fill="#83C8F0" d="M13.522,86.243c-0.149-0.159-0.324-0.24-0.522-0.24
			c-0.197,0-0.372,0.081-0.521,0.24l-5.249,5.565c-0.149,0.159-0.226,0.348-0.226,0.563c0,0.215,0.077,0.404,0.226,0.563
			l0.782,0.829c0.151,0.161,0.326,0.24,0.526,0.24c0.2,0,0.375-0.079,0.525-0.24l2.637-2.801l1.183-1l1.421,1l2.636,2.801
			c0.144,0.161,0.318,0.24,0.521,0.24c0.204,0,0.38-0.079,0.531-0.24l0.779-0.829c0.15-0.159,0.226-0.349,0.226-0.563
			c0-0.215-0.076-0.404-0.226-0.563L13.522,86.243z M13,78C5.82,78,0,83.82,0,91c0,7.179,5.82,13,13,13s13-5.82,13-13
			C26,83.82,20.18,78,13,78z M13,101.4c-5.744,0-10.4-4.656-10.4-10.4c0-5.744,4.656-10.4,10.4-10.4S23.4,85.256,23.4,91
			C23.4,96.744,18.744,101.4,13,101.4z"/>
	</g>
</g>
<g>
	<g>
		<path fill-rule="evenodd" clip-rule="evenodd" fill="#212C43" d="M8.011,67.764c0.151,0.161,0.326,0.24,0.526,0.24
			c0.2,0,0.375-0.08,0.525-0.24l2.637-2.801l1.183-1l1.421,1l2.636,2.801c0.144,0.161,0.318,0.24,0.521,0.24
			c0.204,0,0.38-0.08,0.531-0.24l0.779-0.829c0.15-0.159,0.226-0.349,0.226-0.563c0-0.215-0.076-0.404-0.226-0.563l-5.249-5.565
			c-0.149-0.159-0.324-0.24-0.522-0.24c-0.197,0-0.372,0.081-0.521,0.24l-5.249,5.565c-0.149,0.159-0.226,0.348-0.226,0.563
			c0,0.214,0.077,0.404,0.226,0.563L8.011,67.764z M13,77.999c7.18,0,13-5.82,13-13c0-7.18-5.82-13-13-13s-13,5.82-13,13
			C0,72.179,5.82,77.999,13,77.999z M13,54.599c5.744,0,10.4,4.656,10.4,10.4c0,5.744-4.656,10.4-10.4,10.4s-10.4-4.656-10.4-10.4
			C2.6,59.255,7.256,54.599,13,54.599z"/>
	</g>
</g>
<g>
	<g>
		<path fill-rule="evenodd" clip-rule="evenodd" fill="#83C8F0" d="M17.989,36.235c-0.151-0.161-0.326-0.24-0.526-0.24
			c-0.2,0-0.375,0.08-0.525,0.24l-2.637,2.801l-1.183,1l-1.421-1l-2.636-2.801c-0.144-0.161-0.318-0.24-0.521-0.24
			c-0.204,0-0.38,0.08-0.531,0.24L7.23,37.064c-0.15,0.159-0.226,0.349-0.226,0.563c0,0.215,0.076,0.404,0.226,0.563l5.249,5.565
			c0.149,0.159,0.324,0.24,0.522,0.24c0.197,0,0.372-0.081,0.521-0.24l5.249-5.565c0.149-0.159,0.226-0.348,0.226-0.563
			c0-0.214-0.077-0.404-0.226-0.563L17.989,36.235z M13,25.999c-7.18,0-13,5.82-13,13c0,7.18,5.82,13,13,13s13-5.82,13-13
			C26,31.82,20.18,25.999,13,25.999z M13,49.399c-5.744,0-10.4-4.656-10.4-10.4c0-5.744,4.656-10.4,10.4-10.4s10.4,4.656,10.4,10.4
			C23.4,44.743,18.744,49.399,13,49.399z"/>
	</g>
</g>
<g>
	<g>
		<path fill-rule="evenodd" clip-rule="evenodd" fill="#212C43" d="M17.989,10.235c-0.151-0.161-0.326-0.24-0.526-0.24
			c-0.2,0-0.375,0.08-0.525,0.24l-2.637,2.801l-1.183,1l-1.421-1l-2.636-2.801c-0.144-0.161-0.318-0.24-0.521-0.24
			c-0.204,0-0.38,0.08-0.531,0.24L7.23,11.064c-0.15,0.159-0.226,0.349-0.226,0.563c0,0.215,0.076,0.404,0.226,0.563l5.249,5.565
			c0.149,0.159,0.324,0.24,0.522,0.24c0.197,0,0.372-0.081,0.521-0.24l5.249-5.565c0.149-0.159,0.226-0.348,0.226-0.563
			c0-0.214-0.077-0.404-0.226-0.563L17.989,10.235z M13-0.001c-7.18,0-13,5.82-13,13c0,7.18,5.82,13,13,13s13-5.82,13-13
			C26,5.82,20.18-0.001,13-0.001z M13,23.399c-5.744,0-10.4-4.656-10.4-10.4c0-5.744,4.656-10.4,10.4-10.4s10.4,4.656,10.4,10.4
			C23.4,18.743,18.744,23.399,13,23.399z"/>
	</g>
</g>
</svg>
