<?xml version="1.0" encoding="utf-8"?>
<!-- Generator: Adobe Illustrator 17.0.0, SVG Export Plug-In . SVG Version: 6.00 Build 0)  -->
<!DOCTYPE svg PUBLIC "-//W3C//DTD SVG 1.1//EN" "http://www.w3.org/Graphics/SVG/1.1/DTD/svg11.dtd">
<svg version="1.1" id="Layer_1" xmlns="http://www.w3.org/2000/svg" xmlns:xlink="http://www.w3.org/1999/xlink" x="0px" y="0px"
	 width="66px" height="910px" viewBox="0 0 66 910" enable-background="new 0 0 66 910" xml:space="preserve">
<g>
	<g>
		<g>
			<g>
				<path fill-rule="evenodd" clip-rule="evenodd" fill="#212C43" d="M32.993,307.074c-3.042,0-5.508,2.466-5.508,5.508
					c0,3.042,2.466,5.507,5.508,5.507c3.042,0,5.508-2.466,5.508-5.507C38.5,309.54,36.034,307.074,32.993,307.074z M32.938,315.074
					c-1.389,0-2.516-1.126-2.516-2.515c0-1.39,1.126-2.516,2.516-2.516c1.389,0,2.516,1.126,2.516,2.516
					C35.454,313.947,34.327,315.074,32.938,315.074z M43.5,310.058h-1.338c-0.212-0.781-0.526-1.52-0.919-2.207l0.95-0.949
					c0.781-0.781,0.781-2.047,0-2.828l-0.707-0.707c-0.781-0.781-2.047-0.781-2.828,0l-0.946,0.946
					c-0.693-0.397-1.438-0.714-2.226-0.928v-1.341c0-1.105-0.895-2-2-2h-1c-1.104,0-2,0.896-2,2v1.345
					c-0.785,0.214-1.526,0.53-2.216,0.926l-0.947-0.947c-0.781-0.781-2.047-0.781-2.828,0l-0.707,0.707
					c-0.781,0.781-0.781,2.048,0,2.828l0.951,0.951c-0.392,0.687-0.706,1.425-0.918,2.205h-1.35c-1.104,0-2,0.896-2,2v1
					c0,1.104,0.896,2,2,2h1.356c0.215,0.784,0.531,1.524,0.927,2.213l-0.966,0.966c-0.781,0.781-0.781,2.047,0,2.829l0.707,0.707
					c0.781,0.781,2.047,0.781,2.828,0l0.975-0.976c0.682,0.388,1.414,0.7,2.188,0.912v1.365c0,1.105,0.896,2,2,2h1
					c1.104,0,2-0.895,2-2v-1.362c0.778-0.211,1.513-0.524,2.198-0.914l0.974,0.974c0.781,0.781,2.047,0.781,2.828,0l0.707-0.707
					c0.781-0.781,0.781-2.047,0-2.829l-0.965-0.965c0.397-0.689,0.713-1.43,0.928-2.214H43.5c1.105,0,2-0.895,2-2v-1
					C45.5,310.953,44.605,310.058,43.5,310.058z M32.969,319.073c-3.599,0-6.516-2.917-6.516-6.515c0-3.599,2.917-6.516,6.516-6.516
					c3.599,0,6.516,2.917,6.516,6.516C39.485,316.157,36.568,319.073,32.969,319.073z M32.985,312.074c-0.276,0-0.5,0.224-0.5,0.5
					c0,0.276,0.224,0.5,0.5,0.5c0.276,0,0.5-0.224,0.5-0.5C33.485,312.297,33.261,312.074,32.985,312.074z"/>
			</g>
		</g>
		<g>
			<g>
				<path fill-rule="evenodd" clip-rule="evenodd" fill="#212C43" d="M32.985,280.083c-18.225,0-33,14.775-33,33
					c0,18.225,14.775,33,33,33s33-14.775,33-33C65.985,294.858,51.21,280.083,32.985,280.083z M32.985,344.083
					c-17.121,0-31-13.879-31-31c0-17.121,13.879-31,31-31c17.121,0,31,13.879,31,31C63.985,330.204,50.105,344.083,32.985,344.083z"
					/>
			</g>
		</g>
	</g>
	<g>
		<g>
			<g>
				<path fill-rule="evenodd" clip-rule="evenodd" fill="#212C43" d="M37.189,386.932c-2.602-0.384-2.173-3.319-2.258-3.276
					c-0.085,0.043,0.021-0.618,0.021-0.618c1.498-0.839,1.961-3.171,1.961-3.171v-2.958c0,0-0.554-3.177-2.944-3.177l-2.06-0.719
					c-2.66,0-2.965,3.896-2.965,3.896s0.021,1.076,0,2.718c-0.021,1.642,1.862,3.462,1.862,3.462s0.107,0.661,0.021,0.619
					c-0.085-0.043,0.703,2.84-1.899,3.224c-2.602,0.384-4.756,1.991-5.246,2.46c-0.85,1.098-0.822,3.815-0.822,3.815h20.117
					c0,0-0.277-3.346-0.767-3.815C41.72,388.923,39.791,387.316,37.189,386.932z M48.204,390.528
					c-0.345-0.33-1.367-1.459-3.195-1.729c-1.828-0.269-1.468-2.389-1.528-2.36c-0.06,0.03,0.015-0.435,0.015-0.435
					c1.053-0.589,1.388-2.169,1.388-2.169v-2.68c0,0-0.457-2.232-2.137-2.232l-1.447-0.505c-1.869,0-2.256,2.737-2.256,2.737
					s0.015,1.359,0,2.512c-0.015,1.154,1.423,2.432,1.423,2.432s0.075,0.465,0.015,0.434c-0.036-0.018,0.076,0.328,0.228,0.622
					c2.086,1.298,2.299,1.797,2.485,2.029c0.185,0.232,0.719,3.977,0.719,3.977l5.062,0.046
					C48.975,393.208,48.549,390.857,48.204,390.528z M25.487,386.534c-0.06,0.03,0.015-0.434,0.015-0.434s1.438-1.279,1.423-2.432
					c-0.015-1.154,0-2.512,0-2.512s-0.387-2.737-2.256-2.737l-1.447,0.505c-1.679,0-2.22,2.232-2.22,2.232v2.68
					c0,0,0.418,1.58,1.471,2.169c0,0,0.075,0.464,0.015,0.435c-0.06-0.03,0.299,2.09-1.528,2.36c-1.828,0.27-2.85,1.399-3.195,1.729
					c-0.345,0.329-0.771,2.68-0.771,2.68l5.062-0.046c0,0,0.159-3.464,0.344-3.696c0.185-0.232,0.805-0.918,2.891-2.216
					C25.068,386.612,25.523,386.516,25.487,386.534z"/>
			</g>
		</g>
		<g>
			<g>
				<path fill-rule="evenodd" clip-rule="evenodd" fill="#212C43" d="M32.985,350.208c-18.225,0-33,14.775-33,33
					c0,18.225,14.775,33,33,33c18.225,0,33-14.775,33-33C65.985,364.983,51.21,350.208,32.985,350.208z M32.985,414.208
					c-17.121,0-31-13.879-31-31c0-17.121,13.879-31,31-31c17.121,0,31,13.879,31,31C63.985,400.329,50.105,414.208,32.985,414.208z"
					/>
			</g>
		</g>
	</g>
	<g>
		<path fill-rule="evenodd" clip-rule="evenodd" fill="#212C43" d="M25.477,461.061c-3.601,0-6.519-3.039-6.519-6.64
			c0-3.6,1.988-6.711,6.131-6.633c-0.786,1.194,0.506,1.827,0.506,1.827c1.585-4.214,4.099-5.543,6.868-5.543
			c2.731,0,6.061,1.541,6.143,5.396l0.536-1.159c0.45-1.153,1.756-1.203,2.328-1.203c3.472,0,5.594,1.127,5.516,6.539
			c0,3.472-2.611,7.398-8.208,7.398L25.477,461.061z"/>
		<g>
			<g>
				<path fill-rule="evenodd" clip-rule="evenodd" fill="#212C43" d="M32.979,420.072c-18.225,0-33,14.775-33,33
					c0,18.225,14.775,33,33,33c18.225,0,33-14.775,33-33C65.979,434.846,51.204,420.072,32.979,420.072z M32.979,484.072
					c-17.121,0-31-13.879-31-31c0-17.121,13.879-31,31-31c17.121,0,31,13.879,31,31C63.979,470.192,50.1,484.072,32.979,484.072z"/>
			</g>
		</g>
	</g>
	<g>
		<g>
			<g>
				<path fill="#212C43" d="M28.666,520.921c0.051,0.325,0.19,0.601,0.417,0.827c0.208,0.208,0.463,0.338,0.766,0.39
					c0.303,0.053,0.637,0.007,1.001-0.138l-2.031-2.031C28.666,520.279,28.615,520.596,28.666,520.921z M44.604,522.541
					L32.466,511.56c-0.766-0.766-11.246-0.401-11.246-0.401s-0.634,11.868,0.026,11.965l12.232,11.388
					c0.781,0.781,2.047,0.781,2.828,0l7.591-8.434C44.678,525.296,45.385,523.322,44.604,522.541z M23.524,516.602
					c-0.815-0.815-0.815-2.138,0-2.953c0.815-0.815,2.138-0.815,2.953,0c0.815,0.815,0.815,2.138,0,2.953
					C25.661,517.418,24.339,517.418,23.524,516.602z M37.459,528.61l-1.068-1.068c-0.759,0.595-1.561,0.892-2.407,0.892
					c-0.845,0-1.712-0.327-2.6-0.98l1.368-1.697c0.376,0.251,0.763,0.404,1.162,0.458c0.399,0.055,0.755,0.027,1.068-0.082
					l-2.459-2.459c-0.986,0.548-1.88,0.778-2.682,0.693c-0.802-0.086-1.52-0.446-2.154-1.08c-0.642-0.642-0.978-1.384-1.01-2.225
					c-0.031-0.841,0.256-1.631,0.863-2.371l-0.581-0.581l0.851-0.851l0.581,0.581c0.697-0.548,1.404-0.83,2.122-0.848
					c0.718-0.018,1.421,0.216,2.11,0.701l-1.291,1.679c-0.552-0.372-1.1-0.45-1.643-0.235l2.295,2.295
					c1.194-0.685,2.163-0.995,2.908-0.93c0.745,0.065,1.435,0.414,2.069,1.048c0.708,0.708,1.091,1.519,1.148,2.433
					c0.057,0.914-0.242,1.807-0.895,2.68l1.098,1.097L37.459,528.61z M34.823,522.752c-0.344-0.035-0.743,0.072-1.197,0.323
					l2.289,2.289c0.239-0.348,0.341-0.723,0.308-1.124c-0.033-0.401-0.197-0.748-0.49-1.042
					C35.471,522.936,35.168,522.787,34.823,522.752z"/>
			</g>
		</g>
		<g>
			<g>
				<path fill-rule="evenodd" clip-rule="evenodd" fill="#212C43" d="M32.979,490.167c-18.225,0-33,14.775-33,33
					c0,18.225,14.775,33,33,33s33-14.775,33-33C65.979,504.941,51.204,490.167,32.979,490.167z M32.979,554.167
					c-17.121,0-31-13.879-31-31c0-17.121,13.879-31,31-31s31,13.879,31,31C63.979,540.288,50.099,554.167,32.979,554.167z"/>
			</g>
		</g>
	</g>
	<g>
		<g>
			<g>
				<path fill-rule="evenodd" clip-rule="evenodd" fill="#FFFFFF" d="M43.537,29.974h-1.338c-0.212-0.781-0.526-1.52-0.919-2.207
					l0.95-0.949c0.781-0.781,0.781-2.047,0-2.828l-0.707-0.707c-0.781-0.781-2.047-0.781-2.828,0l-0.946,0.946
					c-0.693-0.397-1.438-0.714-2.227-0.928v-1.341c0-1.105-0.895-2-2-2h-1c-1.105,0-2,0.896-2,2v1.345
					c-0.785,0.214-1.526,0.53-2.216,0.926l-0.947-0.947c-0.781-0.781-2.047-0.781-2.828,0l-0.707,0.707
					c-0.781,0.781-0.781,2.047,0,2.828l0.951,0.951c-0.392,0.687-0.706,1.425-0.918,2.205h-1.35c-1.104,0-2,0.896-2,2v1
					c0,1.105,0.896,2,2,2h1.356c0.215,0.783,0.531,1.524,0.927,2.213l-0.966,0.966c-0.781,0.781-0.781,2.047,0,2.829l0.707,0.707
					c0.781,0.781,2.047,0.781,2.828,0l0.975-0.976c0.682,0.388,1.414,0.7,2.188,0.912v1.365c0,1.105,0.895,2,2,2h1
					c1.104,0,2-0.895,2-2v-1.362c0.778-0.211,1.513-0.524,2.198-0.914l0.974,0.974c0.781,0.781,2.047,0.781,2.828,0l0.707-0.707
					c0.781-0.781,0.781-2.047,0-2.829l-0.965-0.965c0.397-0.689,0.713-1.43,0.928-2.214h1.344c1.105,0,2-0.895,2-2v-1
					C45.537,30.87,44.641,29.974,43.537,29.974z M33.006,38.99c-3.599,0-6.516-2.917-6.516-6.515c0-3.599,2.917-6.516,6.516-6.516
					c3.599,0,6.516,2.917,6.516,6.516C39.521,36.073,36.604,38.99,33.006,38.99z M33.029,26.99c-3.042,0-5.508,2.466-5.508,5.508
					c0,3.042,2.466,5.507,5.508,5.507c3.042,0,5.508-2.465,5.508-5.507C38.537,29.456,36.071,26.99,33.029,26.99z M32.975,34.99
					c-1.389,0-2.516-1.126-2.516-2.515c0-1.39,1.126-2.516,2.516-2.516c1.389,0,2.516,1.126,2.516,2.516
					C35.49,33.864,34.364,34.99,32.975,34.99z M33.021,31.99c-0.276,0-0.5,0.223-0.5,0.5c0,0.276,0.224,0.5,0.5,0.5
					c0.276,0,0.5-0.224,0.5-0.5C33.521,32.214,33.297,31.99,33.021,31.99z"/>
			</g>
		</g>
		<g>
			<g>
				<path fill-rule="evenodd" clip-rule="evenodd" fill="#FFFFFF" d="M33.021,0c-18.225,0-33,14.775-33,33c0,18.225,14.775,33,33,33
					s33-14.775,33-33C66.021,14.775,51.247,0,33.021,0z M33.021,64c-17.121,0-31-13.879-31-31c0-17.121,13.879-31,31-31
					s31,13.879,31,31C64.021,50.121,50.142,64,33.021,64z"/>
			</g>
		</g>
	</g>
	<g>
		<g>
			<g>
				<path fill-rule="evenodd" clip-rule="evenodd" fill="#FFFFFF" d="M37.225,106.849c-2.602-0.384-2.173-3.319-2.258-3.276
					c-0.085,0.043,0.021-0.618,0.021-0.618c1.498-0.839,1.961-3.171,1.961-3.171v-2.958c0,0-0.554-3.177-2.944-3.177l-2.06-0.719
					c-2.66,0-2.965,3.896-2.965,3.896s0.021,1.076,0,2.718c-0.021,1.642,1.862,3.462,1.862,3.462s0.107,0.661,0.021,0.619
					c-0.085-0.043,0.703,2.84-1.899,3.224c-2.602,0.384-4.756,1.991-5.246,2.46c-0.85,1.098-0.822,3.815-0.822,3.815h20.117
					c0,0-0.277-3.346-0.767-3.815C41.756,108.84,39.827,107.233,37.225,106.849z M48.241,110.444
					c-0.345-0.33-1.367-1.459-3.195-1.729c-1.828-0.269-1.468-2.389-1.528-2.36c-0.06,0.03,0.015-0.435,0.015-0.435
					c1.053-0.589,1.388-2.169,1.388-2.169v-2.68c0,0-0.457-2.232-2.137-2.232l-1.447-0.505c-1.869,0-2.256,2.737-2.256,2.737
					s0.015,1.359,0,2.512c-0.015,1.154,1.423,2.432,1.423,2.432s0.075,0.465,0.015,0.434c-0.036-0.018,0.076,0.328,0.228,0.622
					c2.086,1.298,2.299,1.797,2.485,2.029c0.185,0.232,0.719,3.977,0.719,3.977l5.062,0.046
					C49.012,113.125,48.586,110.774,48.241,110.444z M25.524,106.451c-0.06,0.03,0.015-0.434,0.015-0.434s1.438-1.279,1.423-2.432
					c-0.015-1.154,0-2.512,0-2.512s-0.387-2.737-2.256-2.737l-1.447,0.505c-1.679,0-2.22,2.232-2.22,2.232v2.68
					c0,0,0.418,1.58,1.471,2.169c0,0,0.075,0.464,0.015,0.435c-0.06-0.03,0.299,2.09-1.528,2.36c-1.828,0.27-2.85,1.399-3.195,1.729
					c-0.345,0.329-0.771,2.68-0.771,2.68l5.062-0.046c0,0,0.159-3.464,0.344-3.696c0.185-0.232,0.805-0.918,2.891-2.216
					C25.104,106.529,25.56,106.433,25.524,106.451z"/>
			</g>
		</g>
		<g>
			<g>
				<path fill-rule="evenodd" clip-rule="evenodd" fill="#FFFFFF" d="M33.021,70.125c-18.225,0-33,14.775-33,33
					c0,18.225,14.775,33,33,33c18.225,0,33-14.775,33-33C66.021,84.9,51.247,70.125,33.021,70.125z M33.021,134.125
					c-17.121,0-31-13.879-31-31c0-17.121,13.879-31,31-31s31,13.879,31,31C64.021,120.246,50.142,134.125,33.021,134.125z"/>
			</g>
		</g>
	</g>
	<g>
		<path fill-rule="evenodd" clip-rule="evenodd" fill="#FFFFFF" d="M25.513,180.977c-3.601,0-6.519-3.04-6.519-6.64
			c0-3.6,1.987-6.711,6.131-6.633c-0.786,1.193,0.506,1.827,0.506,1.827c1.585-4.214,4.099-5.543,6.868-5.543
			c2.731,0,6.061,1.541,6.143,5.396l0.536-1.159c0.45-1.153,1.756-1.203,2.328-1.203c3.472,0,5.594,1.127,5.516,6.539
			c0,3.472-2.611,7.398-8.208,7.398L25.513,180.977z"/>
		<g>
			<g>
				<path fill-rule="evenodd" clip-rule="evenodd" fill="#FFFFFF" d="M33.015,139.988c-18.225,0-33,14.775-33,33
					c0,18.225,14.775,33,33,33s33-14.775,33-33C66.015,154.763,51.241,139.988,33.015,139.988z M33.015,203.988
					c-17.121,0-31-13.879-31-31c0-17.121,13.879-31,31-31s31,13.879,31,31C64.015,190.109,50.136,203.988,33.015,203.988z"/>
			</g>
		</g>
	</g>
	<g>
		<g>
			<g>
				<path fill="#FFFFFF" d="M34.86,242.669c-0.344-0.035-0.743,0.072-1.197,0.323l2.289,2.289c0.239-0.348,0.341-0.723,0.308-1.124
					c-0.033-0.401-0.197-0.748-0.49-1.042C35.508,242.853,35.204,242.704,34.86,242.669z M28.703,240.838
					c0.051,0.325,0.19,0.601,0.417,0.827c0.208,0.208,0.463,0.337,0.766,0.39c0.303,0.053,0.637,0.007,1.001-0.138l-2.031-2.031
					C28.703,240.196,28.652,240.513,28.703,240.838z M44.641,242.458l-12.138-10.982c-0.766-0.766-11.246-0.401-11.246-0.401
					s-0.634,11.868,0.026,11.965l12.232,11.388c0.781,0.781,2.047,0.781,2.828,0l7.591-8.434
					C44.715,245.213,45.422,243.239,44.641,242.458z M23.56,236.519c-0.815-0.815-0.815-2.138,0-2.953
					c0.815-0.815,2.138-0.815,2.953,0c0.815,0.815,0.815,2.138,0,2.953C25.698,237.334,24.376,237.334,23.56,236.519z
					 M37.495,248.526l-1.068-1.068c-0.759,0.595-1.561,0.892-2.407,0.892c-0.845,0-1.712-0.327-2.6-0.98l1.368-1.697
					c0.376,0.251,0.763,0.404,1.162,0.458c0.399,0.055,0.755,0.027,1.068-0.082l-2.459-2.459c-0.986,0.548-1.88,0.778-2.682,0.693
					c-0.802-0.086-1.52-0.446-2.154-1.08c-0.642-0.642-0.978-1.384-1.01-2.225c-0.031-0.841,0.256-1.631,0.863-2.371l-0.581-0.581
					l0.851-0.851l0.581,0.581c0.697-0.548,1.404-0.83,2.122-0.848c0.718-0.018,1.421,0.216,2.11,0.701l-1.291,1.679
					c-0.552-0.372-1.1-0.45-1.643-0.235l2.295,2.295c1.194-0.685,2.163-0.995,2.908-0.93c0.745,0.065,1.435,0.414,2.069,1.048
					c0.708,0.708,1.091,1.519,1.147,2.433c0.057,0.914-0.242,1.807-0.895,2.68l1.098,1.097L37.495,248.526z"/>
			</g>
		</g>
		<g>
			<g>
				<path fill-rule="evenodd" clip-rule="evenodd" fill="#FFFFFF" d="M33.015,210.083c-18.225,0-33,14.775-33,33
					c0,18.225,14.775,33,33,33s33-14.775,33-33C66.015,224.858,51.241,210.083,33.015,210.083z M33.015,274.083
					c-17.121,0-31-13.879-31-31c0-17.121,13.879-31,31-31s31,13.879,31,31C64.015,260.204,50.136,274.083,33.015,274.083z"/>
			</g>
		</g>
	</g>
</g>
<g>
	<path fill-rule="evenodd" clip-rule="evenodd" fill="#212C43" d="M34.974,590.986c0,0,0.096-11.987,0-11.987
		c6.896,0,11.986,5.091,11.986,11.987C46.96,591.025,34.974,590.986,34.974,590.986z M45.962,593.446
		c0,7.172-5.814,12.985-12.985,12.985s-12.985-5.814-12.985-12.985c0-7.172,5.814-12.985,12.985-12.985
		c0.337,0,0.668,0.024,0.999,0.049v11.475h11.909C45.934,592.445,45.962,592.973,45.962,593.446z M44.9,593.047H32.976V581.46
		c-6.62,0-11.986,5.367-11.986,11.986c0,6.62,5.366,11.986,11.986,11.986s11.986-5.366,11.986-11.986
		C44.963,592.157,44.9,593.047,44.9,593.047z"/>
	<g>
		<g>
			<path fill-rule="evenodd" clip-rule="evenodd" fill="#212C43" d="M32.991,560c-18.225,0-33,14.775-33,33s14.775,33,33,33
				s33-14.775,33-33S51.217,560,32.991,560z M32.991,624c-17.121,0-31-13.879-31-31c0-17.121,13.879-31,31-31s31,13.879,31,31
				C63.991,610.121,50.112,624,32.991,624z"/>
		</g>
	</g>
</g>
<g>
	<path fill-rule="evenodd" clip-rule="evenodd" fill="#212C43" d="M45.287,654.437c0.959,2.313,0.502,5.075-1.379,6.956
		c-2.071,2.071-5.202,2.394-7.634,1.022l-1.758,1.921l1.254,1.259l0.75-0.75c0.383-0.383,1.005-0.383,1.388,0l6.082,6.143
		c0.383,0.383,0.383,1.005,0,1.388l-2.776,2.776c-0.383,0.383-1.005,0.383-1.388,0l-6.082-6.143c-0.383-0.383-0.383-1.005,0-1.388
		l0.685-0.684l-1.196-1.199l-8.412,9.19c-0.767,0.767-2.01,0.767-2.776,0l-0.694-0.694c-0.767-0.767-0.767-2.01,0-2.776l9.582-8.026
		l-6.364-6.381l-2.009-0.001l-2.325-3.74l1.873-1.875l3.825,2.341l0.026,1.968l6.438,6.463l1.873-1.569
		c-1.831-2.496-1.64-6.011,0.617-8.268c1.872-1.872,4.617-2.336,6.924-1.396l-4.125,4.068l3.47,3.471L45.287,654.437z
		 M23.655,672.436c-0.383-0.383-1.005-0.383-1.388,0c-0.383,0.383-0.383,1.005,0,1.388c0.383,0.384,1.005,0.384,1.388,0
		C24.038,673.441,24.038,672.819,23.655,672.436z"/>
	<g>
		<g>
			<path fill-rule="evenodd" clip-rule="evenodd" fill="#212C43" d="M32.976,630.125c-18.225,0-33,14.775-33,33s14.775,33,33,33
				s33-14.775,33-33S51.202,630.125,32.976,630.125z M32.976,694.125c-17.121,0-31-13.879-31-31c0-17.121,13.879-31,31-31
				s31,13.879,31,31C63.976,680.246,50.097,694.125,32.976,694.125z"/>
		</g>
	</g>
</g>
<g>
	<g>
		<g>
			<path fill-rule="evenodd" clip-rule="evenodd" fill="#212C43" d="M33.086,719.318c-7.18,0-13,5.82-13,13c0,7.18,5.82,13,13,13
				s13-5.821,13-13C46.086,725.139,40.265,719.318,33.086,719.318z M32.981,742.846c-5.799,0-10.5-4.701-10.5-10.5
				c0-5.799,4.701-10.5,10.5-10.5c5.799,0,10.5,4.701,10.5,10.5C43.481,738.145,38.78,742.846,32.981,742.846z M36.015,732.949
				h-2.979v-5.032c0-0.547-0.443-0.99-0.99-0.99c-0.547,0-0.99,0.443-0.99,0.99v6.021c0,0.547,0.443,0.99,0.99,0.99h3.969
				c0.547,0,0.99-0.443,0.99-0.99C37.005,733.392,36.562,732.949,36.015,732.949z"/>
		</g>
	</g>
	<g>
		<g>
			<path fill-rule="evenodd" clip-rule="evenodd" fill="#212C43" d="M33.024,699.988c-18.225,0-33,14.774-33,33
				c0,18.225,14.775,33,33,33s33-14.775,33-33C66.024,714.763,51.249,699.988,33.024,699.988z M33.024,763.988
				c-17.121,0-31-13.879-31-31c0-17.121,13.879-31,31-31s31,13.879,31,31C64.024,750.109,50.144,763.988,33.024,763.988z"/>
		</g>
	</g>
</g>
<g>
	<g>
		<g>
			<path fill-rule="evenodd" clip-rule="evenodd" fill="#212C43" d="M33.961,805.115h-8v0.969h8V805.115z M28.993,790.083v3.016
				h-3.031v3.016h-2.953v18.938h13.969v-3.031h2.953v-2.938h3.016v-19H28.993z M36.008,814.083H23.977v-17.063h12.031V814.083z
				 M38.961,811.115h-1.984v-15H26.93v-2.047h12.031V811.115z M41.977,808.115H39.93v-15.016h-9.969v-2.047h12.016V808.115z
				 M33.961,802.115h-8v0.906h8V802.115z M33.961,811.099h-8v0.969h8V811.099z M33.961,808.083h-8v0.969h8V808.083z M33.976,799.083
				h-8v1h8V799.083z"/>
		</g>
	</g>
	<g>
		<g>
			<path fill-rule="evenodd" clip-rule="evenodd" fill="#212C43" d="M32.976,770.083c-18.225,0-33,14.775-33,33
				c0,18.225,14.775,33,33,33s33-14.775,33-33C65.976,784.858,51.202,770.083,32.976,770.083z M32.976,834.083
				c-17.121,0-31-13.879-31-31c0-17.121,13.879-31,31-31c17.121,0,31,13.879,31,31C63.976,820.204,50.097,834.083,32.976,834.083z"
				/>
		</g>
	</g>
</g>
<g>
	<path fill-rule="evenodd" clip-rule="evenodd" fill="#212C43" d="M45.024,886.083h-24c-1.105,0-2-0.895-2-2v-9h4v3h4v-3h12v3h4v-3
		h4v9C47.024,885.188,46.128,886.083,45.024,886.083z M40.024,877.083v-4h2v4H40.024z M24.024,877.083v-4h2v4H24.024z
		 M43.024,872.084h-4v2h-12v-2h-4v2h-4v-7c0-1.105,0.896-2,2-2h24c1.105,0,2,0.896,2,2v7h-4V872.084z M36.023,862.063h-6v2.021h-2
		v-0.979h1v-3.021h8.021v3h0.979v1h-2V862.063z"/>
	<g>
		<g>
			<path fill-rule="evenodd" clip-rule="evenodd" fill="#212C43" d="M33.024,840.083c-18.225,0-33,14.775-33,33
				c0,18.225,14.775,33,33,33c18.225,0,33-14.775,33-33C66.024,854.858,51.249,840.083,33.024,840.083z M33.024,904.083
				c-17.121,0-31-13.879-31-31c0-17.121,13.879-31,31-31s31,13.879,31,31C64.024,890.204,50.145,904.083,33.024,904.083z"/>
		</g>
	</g>
</g>
</svg>
