<?xml version="1.0" encoding="utf-8"?>
<!-- Generator: Adobe Illustrator 17.0.0, SVG Export Plug-In . SVG Version: 6.00 Build 0)  -->
<!DOCTYPE svg PUBLIC "-//W3C//DTD SVG 1.1//EN" "http://www.w3.org/Graphics/SVG/1.1/DTD/svg11.dtd">
<svg version="1.1" id="Layer_1" xmlns="http://www.w3.org/2000/svg" xmlns:xlink="http://www.w3.org/1999/xlink" x="0px" y="0px"
	 width="30px" height="730px" viewBox="0 0 30 730" enable-background="new 0 0 30 730" xml:space="preserve">
<g>
	<g>
		<g>
			<path fill-rule="evenodd" clip-rule="evenodd" fill="#212C43" d="M15,350c-8.284,0-15,6.716-15,15c0,8.285,6.716,15,15,15
				c8.284,0,15-6.715,15-15C30,356.716,23.284,350,15,350z M15,377c-6.628,0-12-5.372-12-12c0-6.627,5.373-12,12-12
				c6.627,0,12,5.372,12,12C27,371.628,21.627,377,15,377z M20.102,359.901c-0.593-0.589-1.282-1.052-2.069-1.392
				c-0.785-0.338-1.63-0.508-2.53-0.508c-0.901,0-1.746,0.169-2.535,0.508c-0.79,0.34-1.479,0.803-2.067,1.392
				c-0.589,0.587-1.053,1.276-1.391,2.066c-0.34,0.788-0.51,1.634-0.51,2.534c0,0.667,0.095,1.305,0.286,1.915
				c0.189,0.61,0.456,1.171,0.802,1.684c0.344,0.513,0.755,0.971,1.232,1.374c0.478,0.405,0.999,0.729,1.562,0.972
				c-0.01-0.222-0.007-0.463,0.013-0.723c0.018-0.261,0.055-0.513,0.11-0.757c0.033-0.135,0.081-0.352,0.146-0.65
				c0.055-0.256,0.138-0.611,0.249-1.065c0.111-0.456,0.256-1.067,0.435-1.83c-0.055-0.103-0.096-0.215-0.126-0.339
				c-0.03-0.121-0.05-0.232-0.061-0.329c-0.022-0.119-0.026-0.242-0.017-0.366c0-0.476,0.12-0.875,0.359-1.191
				c0.239-0.317,0.538-0.476,0.895-0.476c0.299,0,0.52,0.096,0.664,0.286c0.143,0.189,0.216,0.418,0.216,0.683
				c0,0.297-0.073,0.651-0.216,1.06c-0.144,0.41-0.264,0.822-0.362,1.233c-0.043,0.179-0.047,0.343-0.008,0.491
				c0.038,0.149,0.106,0.282,0.208,0.4c0.099,0.116,0.222,0.207,0.365,0.275c0.144,0.068,0.3,0.103,0.468,0.103
				c0.31,0,0.589-0.093,0.838-0.277c0.251-0.184,0.466-0.435,0.651-0.749c0.186-0.313,0.327-0.683,0.428-1.107
				c0.1-0.423,0.149-0.866,0.149-1.334c0-0.357-0.058-0.685-0.174-0.984c-0.116-0.297-0.292-0.557-0.525-0.781
				c-0.234-0.221-0.519-0.397-0.858-0.524c-0.34-0.126-0.726-0.191-1.16-0.191c-0.488,0-0.93,0.086-1.326,0.257
				c-0.395,0.169-0.732,0.398-1.009,0.682c-0.276,0.285-0.49,0.616-0.639,0.994c-0.148,0.377-0.223,0.77-0.223,1.183
				c0,0.519,0.143,0.941,0.43,1.259c0.055,0.083,0.09,0.143,0.106,0.18c0.016,0.038,0.013,0.101-0.008,0.188
				c-0.022,0.06-0.047,0.148-0.073,0.264c-0.027,0.118-0.047,0.202-0.057,0.257c-0.055,0.162-0.166,0.218-0.334,0.162
				c-0.456-0.184-0.792-0.503-1.009-0.956c-0.218-0.453-0.325-0.961-0.325-1.525c0-0.466,0.098-0.939,0.292-1.415
				c0.196-0.476,0.488-0.912,0.875-1.306c0.388-0.393,0.875-0.713,1.457-0.964c0.583-0.249,1.257-0.373,2.022-0.373
				c0.624,0,1.189,0.101,1.693,0.305c0.505,0.203,0.938,0.48,1.301,0.83c0.364,0.348,0.641,0.748,0.833,1.198
				c0.193,0.452,0.291,0.914,0.291,1.392c0,0.634-0.086,1.223-0.258,1.769c-0.171,0.546-0.41,1.017-0.716,1.415
				c-0.307,0.398-0.677,0.709-1.11,0.931c-0.435,0.224-0.911,0.333-1.433,0.333c-0.354,0-0.674-0.079-0.961-0.239
				c-0.287-0.159-0.493-0.352-0.617-0.574c-0.103,0.375-0.183,0.679-0.236,0.911c-0.055,0.234-0.098,0.413-0.131,0.536l-0.09,0.335
				c-0.065,0.256-0.161,0.505-0.289,0.747c-0.128,0.245-0.254,0.461-0.379,0.652c0.304,0.086,0.609,0.152,0.917,0.199
				c0.305,0.045,0.619,0.068,0.939,0.068c0.9,0,1.745-0.169,2.53-0.508c0.787-0.339,1.476-0.801,2.069-1.391
				c0.591-0.587,1.054-1.277,1.391-2.065c0.335-0.79,0.505-1.635,0.505-2.534c0-0.899-0.169-1.745-0.505-2.534
				C21.156,361.177,20.693,360.489,20.102,359.901z"/>
		</g>
	</g>
	<g>
		<g>
			<path fill-rule="evenodd" clip-rule="evenodd" fill="#212C43" d="M15,385c-8.284,0-15,6.716-15,15c0,8.285,6.716,15,15,15
				c8.284,0,15-6.715,15-15C30,391.716,23.284,385,15,385z M15,412c-6.628,0-12-5.372-12-12c0-6.627,5.372-12,12-12
				c6.627,0,12,5.372,12,12C27,406.628,21.627,412,15,412z M15.852,401.382c-0.254-0.211-0.485-0.403-0.695-0.576
				c-0.21-0.173-0.315-0.365-0.315-0.576c0-0.219,0.078-0.402,0.234-0.551c0.155-0.146,0.327-0.312,0.518-0.495
				c0.191-0.181,0.365-0.404,0.523-0.663c0.158-0.261,0.236-0.611,0.236-1.05c0-0.374-0.083-0.744-0.251-1.106
				c-0.167-0.362-0.422-0.646-0.765-0.846h0.908l0.91-0.52h-2.942c-0.42,0-0.839,0.042-1.26,0.128
				c-0.305,0.069-0.591,0.185-0.858,0.347c-0.267,0.162-0.501,0.358-0.701,0.59c-0.201,0.232-0.36,0.487-0.48,0.769
				c-0.12,0.281-0.178,0.58-0.178,0.898c0,0.338,0.066,0.644,0.2,0.917c0.133,0.274,0.31,0.512,0.53,0.714
				c0.219,0.201,0.476,0.357,0.772,0.467c0.296,0.109,0.606,0.164,0.93,0.164h0.247c0.085,0,0.164-0.009,0.241-0.028
				c-0.039,0.103-0.073,0.197-0.104,0.281c-0.032,0.085-0.047,0.181-0.047,0.288c0,0.192,0.044,0.37,0.131,0.535
				c0.089,0.163,0.188,0.313,0.298,0.448c-0.372,0.01-0.787,0.053-1.245,0.13c-0.458,0.078-0.885,0.208-1.282,0.394
				c-0.396,0.185-0.729,0.431-0.997,0.741c-0.27,0.307-0.404,0.698-0.404,1.164c0,0.384,0.099,0.705,0.299,0.963
				c0.202,0.257,0.456,0.468,0.762,0.632c0.308,0.165,0.643,0.282,1.003,0.355c0.36,0.073,0.698,0.109,1.012,0.109
				c0.42,0,0.854-0.052,1.299-0.159c0.447-0.104,0.853-0.268,1.218-0.49c0.365-0.224,0.666-0.507,0.905-0.851
				c0.238-0.344,0.358-0.755,0.358-1.232c0-0.464-0.105-0.843-0.315-1.134C16.335,401.845,16.104,401.593,15.852,401.382z
				 M13.862,399.598c-0.301,0-0.567-0.084-0.799-0.256c-0.231-0.17-0.428-0.385-0.59-0.646c-0.162-0.259-0.286-0.54-0.369-0.842
				c-0.083-0.302-0.124-0.577-0.124-0.825c0-0.201,0.026-0.395,0.082-0.583c0.054-0.188,0.136-0.354,0.244-0.499
				c0.107-0.145,0.244-0.259,0.41-0.344c0.168-0.084,0.364-0.127,0.587-0.127c0.311,0,0.579,0.091,0.806,0.271
				c0.226,0.18,0.413,0.408,0.557,0.681c0.146,0.273,0.253,0.565,0.323,0.871c0.069,0.306,0.104,0.583,0.104,0.832
				c0,0.403-0.091,0.748-0.271,1.035C14.639,399.455,14.319,399.598,13.862,399.598z M15.719,404.571
				c-0.127,0.196-0.292,0.357-0.498,0.48c-0.204,0.124-0.435,0.214-0.69,0.268c-0.255,0.053-0.504,0.08-0.747,0.08
				c-0.263,0-0.543-0.031-0.841-0.095c-0.298-0.063-0.572-0.166-0.819-0.308c-0.248-0.143-0.457-0.326-0.623-0.553
				c-0.167-0.224-0.25-0.496-0.25-0.813c0-0.329,0.085-0.602,0.257-0.823c0.172-0.219,0.388-0.396,0.651-0.53
				c0.263-0.133,0.552-0.229,0.866-0.288c0.315-0.059,0.609-0.088,0.88-0.088c0.067,0,0.137,0.003,0.212,0.007
				c0.073,0.005,0.144,0.012,0.21,0.022c0.177,0.118,0.359,0.239,0.544,0.368c0.185,0.129,0.355,0.266,0.505,0.414
				c0.15,0.148,0.276,0.317,0.378,0.505c0.104,0.191,0.155,0.4,0.155,0.629C15.909,404.133,15.845,404.375,15.719,404.571z
				 M19.458,395.054h-0.765v1.524h-1.539v0.738h1.539v1.51h0.765v-1.51h1.539v-0.738h-1.539V395.054z"/>
		</g>
	</g>
	<g>
		<g>
			<path fill-rule="evenodd" clip-rule="evenodd" fill="#212C43" d="M15,420c-8.284,0-15,6.716-15,15c0,8.285,6.716,15,15,15
				c8.284,0,15-6.715,15-15C30,426.716,23.284,420,15,420z M15,447c-6.627,0-12-5.372-12-12c0-6.627,5.373-12,12-12
				c6.628,0,12,5.372,12,12C27,441.628,21.627,447,15,447z M12.102,433.152H10.32c-0.067,0-0.128,0.028-0.181,0.08
				c-0.052,0.053-0.079,0.115-0.079,0.182v6.327c0,0.068,0.027,0.129,0.079,0.182c0.053,0.054,0.114,0.08,0.181,0.08h1.782
				c0.067,0,0.127-0.026,0.18-0.08c0.053-0.053,0.08-0.114,0.08-0.182v-6.327c0-0.073-0.027-0.134-0.08-0.185
				C12.229,433.178,12.169,433.152,12.102,433.152z M17.345,432.992c-0.33,0-0.648,0.049-0.955,0.147
				c-0.307,0.098-0.581,0.26-0.821,0.486c0-0.099-0.008-0.202-0.026-0.31c-0.017-0.109-0.095-0.163-0.234-0.163h-1.73
				c-0.067,0-0.128,0.028-0.181,0.08c-0.053,0.053-0.079,0.115-0.079,0.182v6.327c0,0.068,0.026,0.129,0.079,0.182
				c0.053,0.054,0.114,0.08,0.181,0.08h1.781c0.068,0,0.128-0.026,0.181-0.08c0.053-0.053,0.079-0.114,0.079-0.182v-3.428
				c0-0.201,0.017-0.388,0.052-0.563c0.033-0.174,0.093-0.324,0.18-0.451c0.087-0.125,0.207-0.225,0.358-0.3
				c0.153-0.074,0.34-0.112,0.565-0.112c0.354,0,0.59,0.086,0.706,0.255c0.116,0.171,0.175,0.418,0.175,0.741v3.857
				c0,0.068,0.025,0.129,0.072,0.182c0.049,0.054,0.107,0.08,0.175,0.08h1.833c0.067,0,0.128-0.026,0.181-0.08
				c0.052-0.053,0.079-0.114,0.079-0.182v-4.266c0-0.843-0.241-1.466-0.723-1.874C18.79,433.196,18.148,432.992,17.345,432.992z
				 M12.06,430.359c-0.113-0.108-0.242-0.195-0.39-0.262c-0.148-0.065-0.304-0.099-0.468-0.099c-0.166,0-0.321,0.034-0.467,0.099
				c-0.145,0.067-0.273,0.154-0.38,0.262c-0.107,0.109-0.194,0.237-0.26,0.387c-0.066,0.148-0.098,0.306-0.098,0.473
				c0,0.165,0.032,0.321,0.098,0.469c0.066,0.145,0.153,0.275,0.26,0.383c0.107,0.108,0.235,0.195,0.38,0.262
				c0.146,0.066,0.301,0.099,0.467,0.099c0.164,0,0.321-0.033,0.468-0.099c0.149-0.067,0.278-0.154,0.39-0.262
				c0.111-0.108,0.198-0.237,0.26-0.383c0.061-0.148,0.092-0.304,0.092-0.469c0-0.167-0.031-0.325-0.092-0.473
				C12.258,430.596,12.172,430.468,12.06,430.359z"/>
		</g>
	</g>
	<g>
		<g>
			<path fill-rule="evenodd" clip-rule="evenodd" fill="#212C43" d="M14.996,455c-8.284,0-15,6.716-15,15c0,8.285,6.716,15,15,15
				c8.284,0,15-6.715,15-15C29.996,461.716,23.28,455,14.996,455z M14.996,482c-6.627,0-12-5.372-12-12c0-6.627,5.373-12,12-12
				c6.627,0,12,5.372,12,12C26.996,476.628,21.623,482,14.996,482z M20.597,469.43c0.061-0.058,0.133-0.138,0.218-0.244
				c0.085-0.104,0.128-0.203,0.128-0.298c0-0.074-0.029-0.141-0.088-0.201c-0.058-0.059-0.127-0.089-0.206-0.089
				c-0.069,0-0.193,0.034-0.371,0.102c-0.178,0.068-0.369,0.102-0.574,0.102c-0.074,0-0.123-0.004-0.149-0.013
				c-0.117-0.409-0.313-0.784-0.589-1.12c-0.276-0.336-0.622-0.593-1.038-0.77c0.117-0.089,0.175-0.198,0.175-0.325
				c0-0.145-0.056-0.248-0.165-0.312c-0.112-0.063-0.234-0.096-0.369-0.096c-0.061-0.11-0.154-0.166-0.279-0.166
				c-0.074,0-0.167,0.015-0.276,0.045c-0.112,0.031-0.202,0.059-0.271,0.083c-0.04-0.033-0.098-0.049-0.175-0.049
				c-0.07,0-0.122,0.012-0.157,0.037c-0.213,0.12-0.406,0.271-0.579,0.456c-0.174,0.183-0.332,0.382-0.475,0.59
				c-0.143,0.21-0.273,0.428-0.39,0.656c-0.117,0.228-0.22,0.447-0.307,0.655c-0.096-0.078-0.193-0.153-0.29-0.224
				c-0.097-0.071-0.201-0.136-0.309-0.194c-0.122-0.058-0.335-0.156-0.637-0.295c-0.304-0.139-0.621-0.279-0.953-0.416
				c-0.332-0.138-0.643-0.263-0.928-0.373c-0.285-0.111-0.469-0.166-0.547-0.166c-0.121,0-0.203,0.038-0.243,0.113
				c-0.043,0.077-0.063,0.162-0.063,0.256c0,0.201,0.044,0.397,0.134,0.585c0.088,0.189,0.208,0.354,0.361,0.498
				c-0.143,0.042-0.215,0.13-0.215,0.265c0,0.201,0.076,0.402,0.227,0.603c0.153,0.201,0.317,0.353,0.495,0.456
				c-0.065,0.042-0.12,0.087-0.163,0.138c-0.044,0.052-0.065,0.109-0.065,0.176c0,0.095,0.036,0.19,0.107,0.286
				c0.072,0.098,0.161,0.185,0.267,0.266c0.106,0.079,0.218,0.149,0.332,0.208c0.114,0.061,0.212,0.102,0.289,0.126
				c-0.034,0.066-0.052,0.147-0.052,0.241c0,0.13,0.04,0.25,0.121,0.357c0.08,0.107,0.183,0.193,0.308,0.259
				c-0.212,0.136-0.445,0.234-0.698,0.295c-0.255,0.062-0.51,0.093-0.765,0.093c-0.712,0.004-1.336-0.217-1.87-0.665
				c-0.073-0.049-0.141-0.074-0.202-0.074c-0.085,0-0.159,0.027-0.218,0.083c-0.058,0.056-0.088,0.125-0.088,0.206
				c0,0.042,0.018,0.094,0.053,0.16c0.559,0.74,1.264,1.301,2.114,1.684c0.851,0.384,1.753,0.576,2.702,0.576
				c0.595,0,1.191-0.078,1.79-0.235c0.599-0.156,1.159-0.381,1.68-0.674c0.521-0.293,0.976-0.66,1.368-1.099
				c0.39-0.439,0.678-0.943,0.866-1.514c0.09-0.009,0.218-0.031,0.38-0.068c0.162-0.037,0.32-0.09,0.473-0.158
				c0.151-0.068,0.284-0.145,0.399-0.23c0.116-0.087,0.173-0.19,0.173-0.308c0-0.112-0.041-0.191-0.124-0.238
				C20.788,469.43,20.697,469.414,20.597,469.43z"/>
		</g>
	</g>
	<g>
		<g>
			<path fill-rule="evenodd" clip-rule="evenodd" fill="#212C43" d="M15,490c-8.284,0-15,6.716-15,15c0,8.285,6.716,15,15,15
				c8.284,0,15-6.715,15-15C30,496.716,23.284,490,15,490z M15,517c-6.627,0-12-5.372-12-12c0-6.627,5.373-12,12-12s12,5.372,12,12
				C27,511.628,21.627,517,15,517z M17.778,499.236c-0.551-0.158-1.137-0.238-1.758-0.238c-1.849,0.005-2.774,0.922-2.774,2.751
				v0.782h-0.948c-0.081,0-0.152,0.031-0.209,0.095c-0.057,0.064-0.087,0.138-0.087,0.219v1.555c0,0.082,0.029,0.152,0.087,0.212
				c0.057,0.059,0.128,0.087,0.209,0.087h0.948v6.007c0,0.083,0.029,0.153,0.087,0.211c0.057,0.059,0.128,0.087,0.209,0.087h1.955
				c0.082,0,0.152-0.028,0.21-0.087c0.057-0.058,0.086-0.128,0.086-0.211v-6.007h1.568c0.082,0,0.15-0.023,0.206-0.072
				c0.056-0.05,0.083-0.115,0.083-0.197l0.128-1.57c0-0.097-0.025-0.172-0.076-0.222c-0.076-0.072-0.148-0.108-0.219-0.108h-1.69
				v-0.674c0-0.261,0.031-0.434,0.094-0.519c0.063-0.084,0.229-0.125,0.496-0.125c0.147,0,0.316,0.01,0.504,0.03
				c0.19,0.02,0.372,0.051,0.55,0.092c0.074,0.02,0.154,0.006,0.235-0.045c0.06-0.052,0.101-0.117,0.121-0.2l0.204-1.524
				C18.019,499.397,17.945,499.287,17.778,499.236z"/>
		</g>
	</g>
</g>
<g>
	<g>
		<g>
			<path fill-rule="evenodd" clip-rule="evenodd" fill="#8B98B2" d="M15,0C6.716,0,0,6.716,0,15c0,8.285,6.716,15,15,15
				c8.284,0,15-6.715,15-15C30,6.716,23.284,0,15,0z M15,27C8.373,27,3,21.628,3,15C3,8.373,8.373,3,15,3c6.627,0,12,5.372,12,12
				C27,21.628,21.627,27,15,27z M20.102,9.901c-0.593-0.589-1.282-1.052-2.068-1.392c-0.785-0.338-1.63-0.508-2.53-0.508
				c-0.901,0-1.746,0.169-2.535,0.508c-0.79,0.34-1.479,0.803-2.067,1.392c-0.589,0.587-1.053,1.276-1.391,2.066
				c-0.34,0.788-0.51,1.634-0.51,2.534c0,0.667,0.095,1.305,0.286,1.915c0.189,0.61,0.456,1.171,0.802,1.684
				c0.344,0.513,0.755,0.971,1.232,1.374c0.478,0.405,0.999,0.729,1.562,0.972c-0.01-0.222-0.007-0.463,0.013-0.723
				c0.018-0.261,0.055-0.513,0.11-0.757c0.033-0.135,0.081-0.352,0.146-0.65c0.055-0.256,0.138-0.611,0.249-1.065
				c0.111-0.456,0.256-1.067,0.435-1.83c-0.055-0.103-0.096-0.215-0.126-0.339c-0.03-0.121-0.05-0.232-0.061-0.329
				c-0.022-0.119-0.026-0.242-0.017-0.366c0-0.476,0.119-0.875,0.359-1.191c0.239-0.317,0.538-0.476,0.895-0.476
				c0.299,0,0.52,0.096,0.664,0.286c0.143,0.189,0.216,0.418,0.216,0.683c0,0.297-0.073,0.651-0.216,1.06
				c-0.145,0.41-0.264,0.822-0.362,1.233c-0.043,0.179-0.047,0.343-0.008,0.491c0.038,0.149,0.106,0.282,0.208,0.4
				c0.099,0.116,0.222,0.207,0.365,0.275c0.144,0.068,0.301,0.103,0.468,0.103c0.31,0,0.589-0.093,0.838-0.277
				c0.251-0.184,0.466-0.435,0.651-0.749c0.186-0.313,0.327-0.683,0.428-1.107c0.1-0.423,0.149-0.866,0.149-1.334
				c0-0.357-0.058-0.685-0.174-0.984c-0.116-0.297-0.292-0.557-0.525-0.781c-0.234-0.221-0.52-0.397-0.858-0.524
				c-0.34-0.126-0.726-0.191-1.16-0.191c-0.488,0-0.93,0.086-1.326,0.257c-0.395,0.169-0.732,0.398-1.009,0.682
				c-0.276,0.285-0.49,0.616-0.639,0.994c-0.148,0.377-0.223,0.77-0.223,1.183c0,0.519,0.143,0.941,0.43,1.259
				c0.055,0.083,0.09,0.143,0.106,0.18c0.016,0.038,0.013,0.101-0.008,0.188c-0.022,0.06-0.047,0.148-0.073,0.264
				c-0.027,0.118-0.047,0.202-0.057,0.257c-0.055,0.162-0.166,0.218-0.334,0.162c-0.456-0.184-0.792-0.503-1.009-0.956
				c-0.218-0.453-0.325-0.961-0.325-1.525c0-0.466,0.098-0.939,0.292-1.415c0.196-0.476,0.488-0.912,0.875-1.306
				c0.388-0.393,0.875-0.713,1.458-0.964c0.583-0.249,1.257-0.373,2.022-0.373c0.624,0,1.189,0.101,1.693,0.305
				c0.505,0.203,0.938,0.48,1.302,0.83c0.364,0.348,0.641,0.748,0.833,1.198c0.193,0.452,0.291,0.914,0.291,1.392
				c0,0.634-0.086,1.223-0.258,1.769c-0.171,0.546-0.41,1.017-0.715,1.415c-0.307,0.398-0.677,0.709-1.11,0.931
				c-0.435,0.224-0.911,0.333-1.433,0.333c-0.354,0-0.674-0.079-0.961-0.239c-0.287-0.159-0.493-0.352-0.617-0.574
				c-0.103,0.375-0.183,0.679-0.236,0.911c-0.055,0.234-0.098,0.413-0.131,0.536l-0.089,0.335c-0.065,0.256-0.161,0.505-0.289,0.747
				c-0.128,0.245-0.254,0.461-0.379,0.652c0.304,0.086,0.609,0.152,0.917,0.199c0.305,0.045,0.619,0.068,0.939,0.068
				c0.9,0,1.745-0.169,2.53-0.508c0.787-0.339,1.476-0.801,2.068-1.391c0.591-0.587,1.054-1.277,1.391-2.065
				c0.335-0.79,0.505-1.635,0.505-2.534c0-0.899-0.169-1.745-0.505-2.534C21.156,11.177,20.693,10.489,20.102,9.901z"/>
		</g>
	</g>
	<g>
		<g>
			<path fill-rule="evenodd" clip-rule="evenodd" fill="#8B98B2" d="M15,35C6.716,35,0,41.716,0,50c0,8.285,6.716,15,15,15
				c8.284,0,15-6.715,15-15C30,41.716,23.284,35,15,35z M15,62C8.372,62,3,56.628,3,50c0-6.627,5.372-12,12-12
				c6.627,0,12,5.372,12,12C27,56.628,21.627,62,15,62z M19.458,45.054h-0.765v1.524h-1.539v0.738h1.539v1.51h0.765v-1.51h1.539
				v-0.738h-1.539V45.054z M15.852,51.382c-0.254-0.211-0.485-0.403-0.695-0.576c-0.21-0.173-0.315-0.365-0.315-0.576
				c0-0.219,0.078-0.402,0.234-0.552c0.155-0.146,0.327-0.312,0.518-0.494c0.191-0.181,0.365-0.404,0.523-0.663
				c0.158-0.261,0.236-0.611,0.236-1.05c0-0.374-0.083-0.744-0.251-1.106c-0.167-0.362-0.422-0.646-0.765-0.846h0.908l0.91-0.52
				h-2.942c-0.42,0-0.839,0.042-1.26,0.128c-0.305,0.069-0.591,0.185-0.858,0.347c-0.267,0.162-0.501,0.358-0.701,0.59
				c-0.202,0.232-0.361,0.487-0.48,0.769c-0.12,0.281-0.178,0.58-0.178,0.898c0,0.338,0.066,0.644,0.2,0.917
				c0.133,0.274,0.31,0.512,0.53,0.714c0.219,0.201,0.476,0.357,0.772,0.467c0.296,0.109,0.606,0.164,0.93,0.164h0.247
				c0.085,0,0.164-0.009,0.241-0.028c-0.04,0.103-0.073,0.197-0.104,0.281c-0.032,0.085-0.047,0.181-0.047,0.288
				c0,0.192,0.044,0.37,0.131,0.535c0.089,0.163,0.188,0.313,0.298,0.448c-0.372,0.01-0.787,0.053-1.245,0.13
				c-0.458,0.078-0.885,0.208-1.282,0.394c-0.396,0.185-0.729,0.431-0.997,0.741c-0.27,0.307-0.404,0.698-0.404,1.164
				c0,0.384,0.099,0.705,0.299,0.963c0.202,0.257,0.456,0.468,0.762,0.632c0.308,0.165,0.643,0.282,1.003,0.355
				c0.361,0.074,0.698,0.109,1.012,0.109c0.42,0,0.854-0.052,1.299-0.159c0.447-0.104,0.853-0.268,1.218-0.49
				c0.365-0.223,0.666-0.507,0.905-0.851c0.238-0.344,0.358-0.755,0.358-1.232c0-0.464-0.105-0.843-0.315-1.134
				C16.335,51.845,16.104,51.593,15.852,51.382z M13.862,49.598c-0.301,0-0.567-0.084-0.799-0.256
				c-0.231-0.17-0.428-0.385-0.59-0.646c-0.162-0.259-0.286-0.54-0.369-0.842c-0.083-0.302-0.124-0.577-0.124-0.825
				c0-0.201,0.026-0.395,0.082-0.583c0.054-0.188,0.136-0.354,0.244-0.499c0.107-0.145,0.244-0.259,0.41-0.344
				c0.168-0.084,0.364-0.127,0.587-0.127c0.311,0,0.58,0.091,0.806,0.271c0.226,0.18,0.413,0.408,0.557,0.681
				c0.146,0.273,0.253,0.565,0.323,0.871c0.069,0.306,0.104,0.583,0.104,0.832c0,0.403-0.091,0.748-0.271,1.035
				C14.639,49.455,14.319,49.598,13.862,49.598z M15.719,54.571c-0.127,0.196-0.292,0.357-0.498,0.48
				c-0.204,0.124-0.435,0.214-0.691,0.268c-0.255,0.053-0.504,0.08-0.747,0.08c-0.263,0-0.543-0.031-0.841-0.095
				c-0.298-0.063-0.572-0.166-0.819-0.308c-0.248-0.143-0.457-0.326-0.623-0.553c-0.167-0.224-0.25-0.496-0.25-0.814
				c0-0.328,0.085-0.602,0.257-0.823c0.172-0.219,0.388-0.396,0.651-0.53c0.263-0.133,0.552-0.229,0.866-0.288
				c0.315-0.059,0.609-0.088,0.88-0.088c0.067,0,0.137,0.003,0.212,0.007c0.073,0.005,0.144,0.012,0.21,0.022
				c0.177,0.118,0.359,0.239,0.545,0.368c0.185,0.129,0.355,0.266,0.505,0.414c0.15,0.148,0.276,0.317,0.378,0.505
				c0.104,0.191,0.155,0.4,0.155,0.629C15.909,54.133,15.845,54.375,15.719,54.571z"/>
		</g>
	</g>
	<g>
		<g>
			<path fill-rule="evenodd" clip-rule="evenodd" fill="#8B98B2" d="M15,70C6.716,70,0,76.716,0,85c0,8.285,6.716,15,15,15
				c8.284,0,15-6.715,15-15C30,76.716,23.284,70,15,70z M15,97C8.373,97,3,91.628,3,85c0-6.627,5.373-12,12-12
				c6.628,0,12,5.372,12,12C27,91.628,21.627,97,15,97z M12.06,80.359c-0.113-0.108-0.242-0.195-0.39-0.262
				c-0.148-0.065-0.304-0.099-0.468-0.099c-0.166,0-0.321,0.034-0.467,0.099c-0.145,0.067-0.273,0.154-0.38,0.262
				c-0.107,0.109-0.194,0.237-0.26,0.387c-0.066,0.148-0.098,0.306-0.098,0.473c0,0.165,0.032,0.321,0.098,0.469
				c0.066,0.145,0.153,0.275,0.26,0.383c0.107,0.108,0.235,0.195,0.38,0.262c0.146,0.066,0.301,0.099,0.467,0.099
				c0.164,0,0.321-0.033,0.468-0.099c0.149-0.067,0.278-0.154,0.39-0.262c0.111-0.108,0.198-0.237,0.26-0.383
				c0.061-0.148,0.092-0.304,0.092-0.469c0-0.167-0.031-0.325-0.092-0.473C12.258,80.596,12.172,80.468,12.06,80.359z
				 M12.102,83.152H10.32c-0.067,0-0.128,0.028-0.181,0.08c-0.052,0.053-0.079,0.115-0.079,0.182v6.327
				c0,0.068,0.027,0.129,0.079,0.182c0.053,0.054,0.114,0.08,0.181,0.08h1.782c0.067,0,0.127-0.026,0.18-0.08
				c0.053-0.053,0.08-0.114,0.08-0.182v-6.327c0-0.073-0.027-0.134-0.08-0.185C12.229,83.178,12.169,83.152,12.102,83.152z
				 M17.345,82.993c-0.33,0-0.648,0.049-0.955,0.147c-0.306,0.098-0.581,0.259-0.821,0.486c0-0.099-0.008-0.202-0.026-0.31
				c-0.017-0.109-0.095-0.163-0.234-0.163h-1.73c-0.067,0-0.128,0.028-0.181,0.08c-0.053,0.053-0.079,0.115-0.079,0.182v6.327
				c0,0.068,0.026,0.129,0.079,0.182c0.053,0.054,0.114,0.08,0.181,0.08h1.781c0.069,0,0.128-0.026,0.181-0.08
				c0.053-0.053,0.079-0.114,0.079-0.182v-3.428c0-0.201,0.017-0.388,0.052-0.563c0.033-0.174,0.093-0.324,0.18-0.451
				c0.087-0.125,0.207-0.226,0.358-0.3c0.153-0.074,0.34-0.112,0.565-0.112c0.354,0,0.59,0.086,0.706,0.255
				c0.116,0.171,0.175,0.418,0.175,0.741v3.857c0,0.068,0.025,0.129,0.072,0.182c0.049,0.054,0.107,0.08,0.175,0.08h1.833
				c0.067,0,0.128-0.026,0.181-0.08c0.052-0.053,0.079-0.114,0.079-0.182v-4.266c0-0.843-0.241-1.466-0.723-1.874
				C18.79,83.196,18.148,82.993,17.345,82.993z"/>
		</g>
	</g>
	<g>
		<g>
			<path fill-rule="evenodd" clip-rule="evenodd" fill="#8B98B2" d="M14.996,105c-8.284,0-15,6.716-15,15c0,8.285,6.716,15,15,15
				c8.284,0,15-6.715,15-15C29.996,111.716,23.28,105,14.996,105z M14.996,132c-6.627,0-12-5.372-12-12c0-6.627,5.373-12,12-12
				c6.627,0,12,5.372,12,12C26.996,126.628,21.623,132,14.996,132z M20.597,119.43c0.061-0.058,0.133-0.138,0.218-0.244
				c0.085-0.104,0.128-0.203,0.128-0.298c0-0.074-0.029-0.141-0.088-0.201c-0.058-0.059-0.127-0.089-0.206-0.089
				c-0.069,0-0.193,0.034-0.371,0.102c-0.178,0.068-0.369,0.102-0.574,0.102c-0.074,0-0.123-0.004-0.149-0.013
				c-0.117-0.409-0.313-0.784-0.589-1.12c-0.276-0.336-0.622-0.593-1.038-0.77c0.117-0.089,0.175-0.198,0.175-0.325
				c0-0.145-0.056-0.248-0.165-0.312c-0.112-0.063-0.234-0.096-0.369-0.096c-0.061-0.11-0.154-0.166-0.279-0.166
				c-0.074,0-0.167,0.015-0.276,0.045c-0.112,0.031-0.202,0.059-0.271,0.083c-0.04-0.033-0.098-0.049-0.175-0.049
				c-0.07,0-0.122,0.012-0.157,0.037c-0.213,0.12-0.406,0.271-0.579,0.456c-0.174,0.183-0.332,0.382-0.475,0.59
				c-0.143,0.21-0.273,0.428-0.39,0.656c-0.117,0.228-0.22,0.447-0.307,0.655c-0.096-0.078-0.193-0.153-0.289-0.225
				c-0.097-0.071-0.201-0.136-0.309-0.193c-0.122-0.058-0.334-0.156-0.637-0.295c-0.304-0.139-0.621-0.279-0.953-0.416
				c-0.332-0.138-0.643-0.263-0.928-0.373c-0.285-0.111-0.469-0.166-0.547-0.166c-0.121,0-0.203,0.038-0.243,0.113
				c-0.043,0.077-0.063,0.162-0.063,0.256c0,0.201,0.044,0.397,0.134,0.585c0.088,0.189,0.208,0.354,0.361,0.498
				c-0.143,0.042-0.215,0.13-0.215,0.265c0,0.201,0.076,0.402,0.227,0.603c0.153,0.201,0.317,0.353,0.495,0.456
				c-0.065,0.042-0.12,0.087-0.163,0.138c-0.044,0.052-0.065,0.109-0.065,0.176c0,0.095,0.036,0.19,0.107,0.286
				c0.072,0.098,0.161,0.185,0.267,0.266c0.106,0.079,0.218,0.149,0.332,0.208c0.114,0.061,0.213,0.102,0.289,0.126
				c-0.034,0.066-0.052,0.147-0.052,0.241c0,0.13,0.04,0.25,0.121,0.357c0.08,0.107,0.183,0.193,0.308,0.259
				c-0.212,0.136-0.445,0.234-0.698,0.295c-0.255,0.062-0.51,0.093-0.765,0.093c-0.712,0.004-1.336-0.217-1.869-0.666
				c-0.073-0.049-0.141-0.074-0.202-0.074c-0.085,0-0.159,0.027-0.218,0.083c-0.058,0.056-0.088,0.125-0.088,0.206
				c0,0.042,0.018,0.094,0.053,0.16c0.559,0.74,1.264,1.301,2.114,1.684c0.851,0.384,1.753,0.576,2.702,0.576
				c0.595,0,1.191-0.078,1.79-0.235c0.599-0.156,1.159-0.381,1.68-0.674c0.521-0.293,0.976-0.66,1.368-1.099
				c0.39-0.439,0.678-0.943,0.866-1.514c0.09-0.009,0.218-0.031,0.38-0.068c0.162-0.037,0.32-0.09,0.473-0.158
				c0.151-0.068,0.284-0.145,0.4-0.23c0.116-0.087,0.173-0.19,0.173-0.308c0-0.112-0.041-0.191-0.123-0.238
				C20.788,119.43,20.697,119.414,20.597,119.43z"/>
		</g>
	</g>
	<g>
		<g>
			<path fill-rule="evenodd" clip-rule="evenodd" fill="#8B98B2" d="M15,140c-8.284,0-15,6.716-15,15c0,8.285,6.716,15,15,15
				c8.284,0,15-6.715,15-15C30,146.716,23.284,140,15,140z M15,167c-6.627,0-12-5.372-12-12c0-6.627,5.373-12,12-12
				c6.627,0,12,5.372,12,12C27,161.628,21.627,167,15,167z M17.778,149.236c-0.551-0.158-1.137-0.238-1.758-0.238
				c-1.849,0.005-2.774,0.922-2.774,2.751v0.782h-0.948c-0.08,0-0.152,0.031-0.209,0.095c-0.057,0.064-0.087,0.138-0.087,0.219
				v1.555c0,0.082,0.029,0.152,0.087,0.212c0.057,0.059,0.128,0.087,0.209,0.087h0.948v6.007c0,0.083,0.029,0.153,0.087,0.211
				c0.057,0.059,0.128,0.087,0.209,0.087h1.955c0.082,0,0.152-0.028,0.21-0.087c0.057-0.058,0.087-0.128,0.087-0.211v-6.007h1.568
				c0.082,0,0.15-0.023,0.206-0.072c0.056-0.05,0.083-0.115,0.083-0.197l0.128-1.57c0-0.097-0.025-0.172-0.076-0.222
				c-0.076-0.072-0.148-0.108-0.219-0.108h-1.69v-0.674c0-0.261,0.031-0.434,0.094-0.519c0.063-0.084,0.229-0.125,0.496-0.125
				c0.147,0,0.316,0.01,0.504,0.03c0.19,0.02,0.372,0.051,0.55,0.092c0.074,0.02,0.155,0.006,0.235-0.045
				c0.06-0.052,0.101-0.117,0.121-0.2l0.204-1.524C18.019,149.397,17.945,149.287,17.778,149.236z"/>
		</g>
	</g>
</g>
<g>
	<g>
		<g>
			<path fill-rule="evenodd" clip-rule="evenodd" fill="#83C8F0" d="M14.998,175c-8.284,0-15,6.716-15,15c0,8.285,6.716,15,15,15
				c8.284,0,15-6.715,15-15C29.998,181.716,23.282,175,14.998,175z M14.998,202c-6.628,0-12-5.372-12-12c0-6.627,5.373-12,12-12
				c6.627,0,12,5.372,12,12C26.998,196.628,21.625,202,14.998,202z M20.1,184.901c-0.593-0.589-1.282-1.052-2.069-1.392
				c-0.785-0.338-1.63-0.508-2.53-0.508c-0.901,0-1.746,0.169-2.535,0.508c-0.79,0.34-1.479,0.803-2.067,1.392
				c-0.589,0.587-1.053,1.276-1.391,2.066c-0.34,0.788-0.51,1.634-0.51,2.534c0,0.667,0.095,1.305,0.286,1.915
				c0.189,0.61,0.456,1.171,0.802,1.684c0.344,0.513,0.755,0.971,1.232,1.374c0.478,0.405,0.999,0.729,1.562,0.972
				c-0.01-0.222-0.007-0.463,0.013-0.723c0.018-0.261,0.055-0.513,0.11-0.757c0.033-0.135,0.081-0.352,0.146-0.65
				c0.055-0.256,0.138-0.611,0.249-1.065c0.111-0.456,0.256-1.067,0.435-1.83c-0.055-0.103-0.096-0.215-0.126-0.339
				c-0.03-0.121-0.05-0.232-0.061-0.329c-0.022-0.119-0.026-0.242-0.017-0.366c0-0.476,0.12-0.875,0.359-1.191
				c0.239-0.317,0.538-0.476,0.895-0.476c0.299,0,0.52,0.096,0.664,0.286c0.143,0.189,0.216,0.418,0.216,0.683
				c0,0.297-0.073,0.651-0.216,1.06c-0.144,0.41-0.264,0.822-0.362,1.233c-0.043,0.179-0.047,0.343-0.008,0.491
				c0.038,0.149,0.106,0.282,0.208,0.4c0.099,0.116,0.222,0.207,0.365,0.275c0.144,0.068,0.3,0.103,0.468,0.103
				c0.31,0,0.589-0.093,0.838-0.277c0.251-0.184,0.466-0.435,0.651-0.749c0.186-0.313,0.327-0.683,0.428-1.107
				c0.1-0.423,0.149-0.866,0.149-1.334c0-0.357-0.058-0.685-0.174-0.984c-0.116-0.297-0.292-0.557-0.525-0.781
				c-0.234-0.221-0.519-0.397-0.858-0.524c-0.34-0.126-0.726-0.191-1.16-0.191c-0.488,0-0.93,0.086-1.326,0.257
				c-0.395,0.169-0.732,0.398-1.009,0.682c-0.276,0.285-0.49,0.616-0.639,0.994c-0.148,0.377-0.223,0.77-0.223,1.183
				c0,0.519,0.143,0.941,0.43,1.259c0.055,0.083,0.09,0.143,0.106,0.18c0.016,0.038,0.013,0.101-0.008,0.188
				c-0.022,0.06-0.047,0.148-0.073,0.264c-0.027,0.118-0.047,0.202-0.057,0.257c-0.055,0.162-0.166,0.218-0.334,0.162
				c-0.456-0.184-0.792-0.503-1.009-0.956c-0.218-0.453-0.325-0.961-0.325-1.525c0-0.466,0.098-0.939,0.292-1.415
				c0.196-0.476,0.488-0.912,0.875-1.306c0.388-0.393,0.875-0.713,1.457-0.964c0.583-0.249,1.257-0.373,2.022-0.373
				c0.624,0,1.189,0.101,1.693,0.305c0.505,0.203,0.938,0.48,1.301,0.83c0.364,0.348,0.641,0.748,0.833,1.198
				c0.193,0.452,0.291,0.914,0.291,1.392c0,0.634-0.086,1.223-0.258,1.769c-0.171,0.546-0.41,1.017-0.716,1.415
				c-0.307,0.398-0.677,0.709-1.11,0.931c-0.435,0.224-0.911,0.333-1.433,0.333c-0.354,0-0.674-0.079-0.961-0.239
				c-0.287-0.159-0.493-0.352-0.617-0.574c-0.103,0.375-0.183,0.679-0.236,0.911c-0.055,0.234-0.098,0.413-0.131,0.536l-0.09,0.335
				c-0.065,0.256-0.161,0.505-0.289,0.747c-0.128,0.245-0.254,0.461-0.379,0.652c0.304,0.086,0.609,0.152,0.917,0.199
				c0.305,0.045,0.619,0.068,0.939,0.068c0.9,0,1.745-0.169,2.53-0.508c0.787-0.339,1.476-0.801,2.069-1.391
				c0.591-0.587,1.054-1.277,1.391-2.065c0.335-0.79,0.505-1.635,0.505-2.534c0-0.899-0.169-1.745-0.505-2.534
				C21.154,186.177,20.691,185.489,20.1,184.901z"/>
		</g>
	</g>
	<g>
		<g>
			<path fill-rule="evenodd" clip-rule="evenodd" fill="#83C8F0" d="M14.998,210c-8.284,0-15,6.716-15,15c0,8.285,6.716,15,15,15
				c8.284,0,15-6.715,15-15C29.998,216.716,23.282,210,14.998,210z M14.998,237c-6.628,0-12-5.372-12-12c0-6.627,5.372-12,12-12
				c6.627,0,12,5.372,12,12C26.998,231.628,21.625,237,14.998,237z M19.456,220.054h-0.765v1.524h-1.539v0.738h1.539v1.51h0.765
				v-1.51h1.539v-0.738h-1.539V220.054z M15.85,226.382c-0.254-0.211-0.485-0.403-0.695-0.576c-0.21-0.173-0.315-0.365-0.315-0.576
				c0-0.219,0.078-0.402,0.234-0.551c0.155-0.146,0.327-0.312,0.518-0.495c0.191-0.181,0.365-0.404,0.523-0.663
				c0.158-0.261,0.236-0.611,0.236-1.05c0-0.374-0.083-0.744-0.251-1.106c-0.167-0.362-0.422-0.646-0.765-0.846h0.908l0.91-0.52
				H14.21c-0.42,0-0.839,0.042-1.26,0.128c-0.305,0.069-0.591,0.185-0.858,0.347c-0.267,0.162-0.501,0.358-0.701,0.59
				c-0.201,0.232-0.36,0.487-0.48,0.769c-0.12,0.281-0.178,0.58-0.178,0.898c0,0.338,0.066,0.644,0.2,0.917
				c0.133,0.274,0.31,0.512,0.53,0.714c0.219,0.201,0.476,0.357,0.772,0.467c0.296,0.109,0.606,0.164,0.93,0.164h0.247
				c0.085,0,0.164-0.009,0.241-0.028c-0.039,0.103-0.073,0.197-0.104,0.281c-0.032,0.085-0.047,0.181-0.047,0.288
				c0,0.192,0.044,0.37,0.131,0.535c0.089,0.163,0.188,0.313,0.298,0.448c-0.372,0.01-0.787,0.053-1.245,0.13
				c-0.458,0.078-0.885,0.208-1.282,0.394c-0.396,0.185-0.729,0.431-0.997,0.741c-0.27,0.307-0.404,0.698-0.404,1.164
				c0,0.384,0.099,0.705,0.299,0.963c0.202,0.257,0.456,0.468,0.762,0.632c0.308,0.165,0.643,0.282,1.003,0.355
				c0.36,0.073,0.698,0.109,1.012,0.109c0.42,0,0.854-0.052,1.299-0.159c0.447-0.104,0.853-0.268,1.218-0.49
				c0.365-0.224,0.666-0.507,0.905-0.851c0.238-0.344,0.358-0.755,0.358-1.232c0-0.464-0.105-0.843-0.315-1.134
				C16.333,226.845,16.102,226.593,15.85,226.382z M13.86,224.598c-0.301,0-0.567-0.084-0.799-0.256
				c-0.231-0.17-0.428-0.385-0.59-0.646c-0.162-0.259-0.286-0.54-0.369-0.842c-0.083-0.302-0.124-0.577-0.124-0.825
				c0-0.201,0.026-0.395,0.082-0.583c0.054-0.188,0.136-0.354,0.244-0.499c0.107-0.145,0.244-0.259,0.41-0.344
				c0.168-0.084,0.364-0.127,0.587-0.127c0.311,0,0.579,0.091,0.806,0.271c0.226,0.18,0.413,0.408,0.557,0.681
				c0.146,0.273,0.253,0.565,0.323,0.871c0.069,0.306,0.104,0.583,0.104,0.832c0,0.403-0.091,0.748-0.271,1.035
				C14.637,224.455,14.317,224.598,13.86,224.598z M15.717,229.571c-0.127,0.196-0.292,0.357-0.498,0.48
				c-0.204,0.124-0.435,0.214-0.69,0.268c-0.255,0.053-0.504,0.08-0.747,0.08c-0.263,0-0.543-0.031-0.841-0.095
				c-0.298-0.063-0.572-0.166-0.819-0.308c-0.248-0.143-0.457-0.326-0.623-0.553c-0.167-0.224-0.25-0.496-0.25-0.813
				c0-0.329,0.085-0.602,0.257-0.823c0.172-0.219,0.388-0.396,0.651-0.53c0.263-0.133,0.552-0.229,0.866-0.288
				c0.315-0.059,0.609-0.088,0.88-0.088c0.067,0,0.137,0.003,0.212,0.007c0.073,0.005,0.144,0.012,0.21,0.022
				c0.177,0.118,0.359,0.239,0.544,0.368c0.185,0.129,0.355,0.266,0.505,0.414c0.15,0.148,0.276,0.317,0.378,0.505
				c0.104,0.191,0.155,0.4,0.155,0.629C15.907,229.133,15.843,229.375,15.717,229.571z"/>
		</g>
	</g>
	<g>
		<g>
			<path fill-rule="evenodd" clip-rule="evenodd" fill="#83C8F0" d="M14.998,245c-8.284,0-15,6.716-15,15c0,8.285,6.716,15,15,15
				c8.284,0,15-6.715,15-15C29.998,251.716,23.282,245,14.998,245z M14.998,272c-6.627,0-12-5.372-12-12c0-6.627,5.373-12,12-12
				c6.628,0,12,5.372,12,12C26.998,266.628,21.625,272,14.998,272z M12.1,258.152h-1.782c-0.067,0-0.128,0.028-0.181,0.08
				c-0.052,0.053-0.079,0.115-0.079,0.182v6.327c0,0.068,0.027,0.129,0.079,0.182c0.053,0.054,0.114,0.08,0.181,0.08H12.1
				c0.067,0,0.127-0.026,0.18-0.08c0.053-0.053,0.08-0.114,0.08-0.182v-6.327c0-0.073-0.027-0.134-0.08-0.185
				C12.226,258.178,12.167,258.152,12.1,258.152z M12.058,255.359c-0.113-0.108-0.242-0.195-0.39-0.262
				c-0.148-0.065-0.304-0.099-0.468-0.099c-0.166,0-0.321,0.034-0.467,0.099c-0.145,0.067-0.273,0.154-0.38,0.262
				c-0.107,0.109-0.194,0.237-0.26,0.387c-0.066,0.148-0.098,0.306-0.098,0.473c0,0.165,0.032,0.321,0.098,0.469
				c0.066,0.145,0.153,0.275,0.26,0.383c0.107,0.108,0.235,0.195,0.38,0.262c0.146,0.066,0.301,0.099,0.467,0.099
				c0.164,0,0.321-0.033,0.468-0.099c0.149-0.067,0.278-0.154,0.39-0.262c0.111-0.108,0.198-0.237,0.26-0.383
				c0.061-0.148,0.092-0.304,0.092-0.469c0-0.167-0.031-0.325-0.092-0.473C12.256,255.596,12.169,255.468,12.058,255.359z
				 M17.343,257.992c-0.33,0-0.648,0.049-0.955,0.147c-0.307,0.098-0.581,0.26-0.821,0.486c0-0.099-0.008-0.202-0.026-0.31
				c-0.017-0.109-0.095-0.163-0.234-0.163h-1.73c-0.067,0-0.128,0.028-0.181,0.08c-0.053,0.053-0.079,0.115-0.079,0.182v6.327
				c0,0.068,0.026,0.129,0.079,0.182c0.053,0.054,0.114,0.08,0.181,0.08h1.781c0.068,0,0.128-0.026,0.181-0.08
				c0.053-0.053,0.079-0.114,0.079-0.182v-3.428c0-0.201,0.017-0.388,0.052-0.563c0.033-0.174,0.093-0.324,0.18-0.451
				c0.087-0.125,0.207-0.225,0.358-0.3c0.153-0.074,0.34-0.112,0.565-0.112c0.354,0,0.59,0.086,0.706,0.255
				c0.116,0.171,0.175,0.418,0.175,0.741v3.857c0,0.068,0.025,0.129,0.072,0.182c0.049,0.054,0.107,0.08,0.175,0.08h1.833
				c0.067,0,0.128-0.026,0.181-0.08c0.052-0.053,0.079-0.114,0.079-0.182v-4.266c0-0.843-0.241-1.466-0.723-1.874
				C18.787,258.196,18.146,257.992,17.343,257.992z"/>
		</g>
	</g>
	<g>
		<g>
			<path fill-rule="evenodd" clip-rule="evenodd" fill="#83C8F0" d="M14.993,280c-8.284,0-15,6.716-15,15c0,8.285,6.716,15,15,15
				c8.284,0,15-6.715,15-15C29.993,286.716,23.278,280,14.993,280z M14.993,307c-6.627,0-12-5.372-12-12c0-6.627,5.373-12,12-12
				c6.627,0,12,5.372,12,12C26.993,301.628,21.621,307,14.993,307z M20.595,294.43c0.061-0.058,0.133-0.138,0.218-0.244
				c0.085-0.104,0.128-0.203,0.128-0.298c0-0.074-0.029-0.141-0.088-0.201c-0.058-0.059-0.127-0.089-0.206-0.089
				c-0.069,0-0.193,0.034-0.371,0.102c-0.178,0.068-0.369,0.102-0.574,0.102c-0.074,0-0.123-0.004-0.149-0.013
				c-0.117-0.409-0.313-0.784-0.589-1.12c-0.276-0.336-0.622-0.593-1.038-0.77c0.117-0.089,0.175-0.198,0.175-0.325
				c0-0.145-0.056-0.248-0.165-0.312c-0.112-0.063-0.234-0.096-0.369-0.096c-0.061-0.11-0.154-0.166-0.279-0.166
				c-0.074,0-0.167,0.015-0.276,0.045c-0.112,0.031-0.202,0.059-0.271,0.083c-0.04-0.033-0.098-0.049-0.175-0.049
				c-0.07,0-0.122,0.012-0.157,0.037c-0.213,0.12-0.406,0.271-0.579,0.456c-0.174,0.183-0.332,0.382-0.475,0.59
				c-0.143,0.21-0.273,0.428-0.39,0.656c-0.117,0.228-0.22,0.447-0.307,0.655c-0.096-0.078-0.193-0.153-0.29-0.224
				c-0.097-0.071-0.201-0.136-0.309-0.194c-0.122-0.058-0.335-0.156-0.637-0.295c-0.304-0.139-0.621-0.279-0.953-0.416
				c-0.332-0.138-0.643-0.263-0.928-0.373c-0.285-0.111-0.469-0.166-0.547-0.166c-0.121,0-0.203,0.038-0.243,0.113
				c-0.043,0.077-0.063,0.162-0.063,0.256c0,0.201,0.044,0.397,0.134,0.585c0.088,0.189,0.208,0.354,0.361,0.498
				c-0.143,0.042-0.215,0.13-0.215,0.265c0,0.201,0.076,0.402,0.227,0.603c0.153,0.201,0.317,0.353,0.495,0.456
				c-0.065,0.042-0.12,0.087-0.163,0.138c-0.044,0.052-0.065,0.109-0.065,0.176c0,0.095,0.036,0.19,0.107,0.286
				c0.072,0.098,0.161,0.185,0.267,0.266c0.106,0.079,0.218,0.149,0.332,0.208c0.114,0.061,0.212,0.102,0.289,0.126
				c-0.034,0.066-0.052,0.147-0.052,0.241c0,0.13,0.04,0.25,0.121,0.357c0.08,0.107,0.183,0.193,0.308,0.259
				c-0.212,0.136-0.445,0.234-0.698,0.295c-0.255,0.062-0.51,0.093-0.765,0.093c-0.712,0.004-1.336-0.217-1.87-0.665
				c-0.073-0.049-0.141-0.074-0.202-0.074c-0.085,0-0.159,0.027-0.218,0.083c-0.058,0.056-0.088,0.125-0.088,0.206
				c0,0.042,0.018,0.094,0.053,0.16c0.559,0.74,1.264,1.301,2.114,1.684c0.851,0.384,1.753,0.576,2.702,0.576
				c0.595,0,1.191-0.078,1.79-0.235c0.599-0.156,1.159-0.381,1.68-0.674c0.521-0.293,0.976-0.66,1.368-1.099
				c0.39-0.439,0.678-0.943,0.866-1.514c0.09-0.009,0.218-0.031,0.38-0.068c0.162-0.037,0.32-0.09,0.473-0.158
				c0.151-0.068,0.284-0.145,0.399-0.23c0.116-0.087,0.173-0.19,0.173-0.308c0-0.112-0.041-0.191-0.124-0.238
				C20.786,294.43,20.695,294.414,20.595,294.43z"/>
		</g>
	</g>
	<g>
		<g>
			<path fill-rule="evenodd" clip-rule="evenodd" fill="#83C8F0" d="M14.998,315c-8.284,0-15,6.716-15,15c0,8.285,6.716,15,15,15
				c8.284,0,15-6.715,15-15C29.998,321.716,23.282,315,14.998,315z M14.998,342c-6.627,0-12-5.372-12-12c0-6.627,5.373-12,12-12
				s12,5.372,12,12C26.998,336.628,21.625,342,14.998,342z M17.776,324.236c-0.551-0.158-1.137-0.238-1.758-0.238
				c-1.849,0.005-2.774,0.922-2.774,2.751v0.782h-0.948c-0.081,0-0.152,0.031-0.209,0.095C12.03,327.69,12,327.763,12,327.845v1.555
				c0,0.082,0.029,0.152,0.087,0.212c0.057,0.059,0.128,0.087,0.209,0.087h0.948v6.007c0,0.083,0.029,0.153,0.087,0.211
				c0.057,0.059,0.128,0.087,0.209,0.087h1.955c0.082,0,0.152-0.028,0.21-0.087c0.057-0.058,0.086-0.128,0.086-0.211v-6.007h1.568
				c0.082,0,0.15-0.023,0.206-0.072c0.056-0.05,0.083-0.115,0.083-0.197l0.128-1.57c0-0.097-0.025-0.172-0.076-0.222
				c-0.076-0.072-0.148-0.108-0.219-0.108h-1.69v-0.674c0-0.261,0.031-0.434,0.094-0.519c0.063-0.084,0.229-0.125,0.496-0.125
				c0.147,0,0.316,0.01,0.504,0.03c0.19,0.02,0.372,0.051,0.55,0.092c0.074,0.02,0.154,0.006,0.235-0.045
				c0.06-0.052,0.101-0.117,0.121-0.2l0.204-1.524C18.017,324.397,17.943,324.287,17.776,324.236z"/>
		</g>
	</g>
</g>
<g>
	<g>
		<g>
			<path fill-rule="evenodd" clip-rule="evenodd" fill="#83C8F0" d="M15,630c-8.284,0-15,6.716-15,15c0,8.284,6.716,15,15,15
				s15-6.716,15-15C30,636.716,23.284,630,15,630z M15,657c-6.628,0-12-5.373-12-12c0-6.627,5.372-12,12-12c6.627,0,12,5.373,12,12
				C27,651.627,21.627,657,15,657z M22.257,638.614c-0.985-1.173-2.159-0.508-2.954,0.039c-0.417,0.156-2.007,1.721-2.651,2.503
				c-0.644,0.782,1.136,0.743,1.477,0.626c0.341-0.117,1.439,0.039,0.606,2.073c-0.833,2.034-2.083,3.325-2.461,3.872
				c-0.379,0.548-0.985,0.078-1.212-1.212c-0.227-1.291-1.401-7.588-1.856-7.901c-0.568-1.056-2.234-0.039-2.234-0.039
				c-0.341,0.274-2.916,2.503-3.37,3.286c-0.454,0.782,0.303,1.252,0.379,1.643c0.076,0.391,0.909-0.9,1.326-1.134
				c0.417-0.235,0.644,0,0.72,0.861c0.076,0.86,2.651,7.823,3.446,9.153c0.795,1.33,2.727,0,2.727,0s5.34-6.493,6.703-9.035
				C24.264,640.805,22.863,639.084,22.257,638.614z"/>
		</g>
	</g>
	<g>
		<g>
			<path fill="#83C8F0" d="M9.26,679.583h1.668v-2.379l1.249-4.263l-1.619,0.035c-0.23,1.233-0.393,2.131-0.491,2.833
				c-0.032-0.444-0.175-1.55-0.428-2.833H8.021l1.239,4.228V679.583z M12.164,677.586c0,0.458,0.031,0.801,0.092,1.029
				c0.061,0.229,0.164,0.424,0.308,0.585c0.144,0.161,0.345,0.281,0.605,0.361c0.26,0.08,0.79,0.12,1.164,0.12
				c0.335,0,0.488-0.047,0.747-0.14c0.258-0.093,0.469-0.238,0.634-0.434c0.165-0.196,0.272-0.407,0.322-0.633
				s0.075-0.581,0.075-1.066v-1.319c0-0.382-0.027-0.666-0.082-0.853c-0.054-0.187-0.155-0.368-0.303-0.544
				c-0.148-0.176-0.358-0.318-0.63-0.428c-0.272-0.11-0.455-0.164-0.834-0.164c-0.452,0-1.037,0.085-1.328,0.256
				c-0.29,0.171-0.491,0.396-0.603,0.678c-0.112,0.281-0.167,0.672-0.167,1.173V677.586z M13.855,675.751
				c0-0.276,0.017-0.45,0.05-0.522c0.033-0.072,0.1-0.108,0.201-0.108c0.101,0,0.237,0.036,0.268,0.108
				c0.031,0.072,0.046,0.246,0.046,0.522v2.207c0,0.233-0.016,0.384-0.048,0.455c-0.032,0.07-0.17,0.106-0.27,0.106
				c-0.098,0-0.163-0.039-0.197-0.116c-0.034-0.077-0.05-0.243-0.05-0.497V675.751z M19.914,683.708
				c-0.023-0.06-0.069-0.089-0.138-0.089c-0.086,0-0.139,0.025-0.16,0.076c-0.02,0.051-0.031-0.09-0.031,0.132v0.289h0.362v-0.289
				C19.948,683.622,19.936,683.767,19.914,683.708z M16.892,679.206c0.079,0.143,0.203,0.258,0.37,0.345
				c0.167,0.087,0.449,0.061,0.703,0.061c0.223,0,0.421,0.024,0.592-0.067c0.172-0.091,0.316-0.227,0.433-0.409l-0.029,0.448h1.72
				v-5.491h-1.691v3.729c0,0.441-0.012,0.702-0.036,0.783c-0.024,0.081-0.098,0.122-0.224,0.122c-0.117,0-0.26-0.039-0.287-0.118
				c-0.026-0.078-0.04-0.328-0.04-0.747v-3.77h-1.691v3.737c0,0.463,0.01,0.772,0.029,0.928
				C16.763,678.913,16.812,679.062,16.892,679.206z M16.623,683.712c-0.026-0.063-0.222-0.094-0.299-0.094
				c-0.076,0-0.125,0.027-0.147,0.082c-0.023,0.055-0.034-0.085-0.034,0.135v1.841c0,0.212,0.013,0.348,0.038,0.408
				c0.026,0.06,0.076,0.089,0.152,0.089c0.078,0,0.271-0.031,0.295-0.092c0.023-0.061,0.035-0.209,0.035-0.444v-1.803
				C16.663,683.631,16.649,683.774,16.623,683.712z M20.143,680.732H9.857c-1.578,0-2.857,1.241-2.857,2.771v1.663
				c0,1.531,1.279,2.771,2.857,2.771h10.286c1.578,0,2.857-1.241,2.857-2.771v-1.663C23,681.973,21.721,680.732,20.143,680.732z
				 M10.968,682.912H10.45v3.89H9.301v-3.89H8.715v-1.068h2.252V682.912z M14.422,686.802H13.16l0.021-0.328
				c-0.086,0.133-0.192,0.233-0.318,0.3c-0.126,0.067-0.271,0.1-0.434,0.1c-0.186,0-0.341-0.032-0.463-0.095
				c-0.123-0.063-0.213-0.148-0.272-0.253c-0.058-0.105-0.095-0.215-0.109-0.329c-0.014-0.114-0.021-0.341-0.021-0.68v-2.595h1.133
				v2.619c0,0.308,0.01,0.49,0.029,0.548c0.019,0.058,0.179,0.086,0.265,0.086c0.092,0,0.218-0.03,0.236-0.089
				c0.017-0.059,0.026-0.251,0.026-0.575v-2.554h1.169V686.802z M17.903,685.701c0,0.29-0.02,0.506-0.06,0.648
				c-0.04,0.142-0.134,0.265-0.281,0.369c-0.147,0.104-0.322,0.156-0.525,0.156c-0.145,0-0.281-0.031-0.407-0.093
				c-0.126-0.062-0.384-0.154-0.488-0.277l-0.08,0.299H15.01v-4.958h1.133v1.418c0.102-0.115,0.359-0.201,0.485-0.258
				c0.126-0.057,0.262-0.085,0.41-0.085c0.17,0,0.317,0.026,0.442,0.077c0.125,0.052,0.22,0.124,0.285,0.217
				c0.065,0.093,0.105,0.185,0.118,0.274c0.013,0.089,0.02,0.003,0.02,0.294V685.701z M21.191,684.62h-1.605v1.131
				c0,0.179,0.013,0.294,0.04,0.345c0.027,0.052,0.078,0.077,0.154,0.077c0.094,0,0.157-0.034,0.189-0.103
				c0.032-0.068,0.048-0.201,0.048-0.397v-0.521h1.175v0.292c0,0.244-0.016,0.432-0.048,0.563c-0.032,0.131-0.106,0.271-0.222,0.42
				c-0.117,0.149-0.265,0.261-0.444,0.335s-0.404,0.112-0.674,0.112c-0.262,0-0.422-0.037-0.622-0.11
				c-0.201-0.073-0.392-0.174-0.504-0.302c-0.112-0.128-0.189-0.269-0.232-0.423c-0.043-0.154-0.064-0.378-0.064-0.671v-1.291
				c0-0.345,0.048-0.341,0.144-0.54c0.096-0.2,0.289-0.352,0.508-0.458c0.219-0.106,0.399-0.159,0.684-0.159
				c0.348,0,0.635,0.064,0.861,0.192c0.226,0.128,0.385,0.298,0.476,0.509c0.091,0.212,0.137,0.37,0.137,0.753V684.62z M15,665
				c-8.284,0-15,6.716-15,15c0,8.284,6.716,15,15,15s15-6.716,15-15C30,671.716,23.284,665,15,665z M15,692c-6.628,0-12-5.373-12-12
				c0-6.627,5.372-12,12-12c6.627,0,12,5.373,12,12C27,686.627,21.627,692,15,692z"/>
		</g>
	</g>
	<g>
		<g>
			<path fill="#83C8F0" d="M22.333,715.223c0.002-0.065,0.003-0.131,0.003-0.196c0-4.121-3.368-7.462-7.523-7.462
				c-0.419,0-0.831,0.034-1.231,0.099l-0.046,0.027c-0.706-0.4-1.523-0.629-2.394-0.629c-2.667,0-4.829,2.144-4.829,4.789
				c0,1.111,0.381,2.133,1.021,2.945c0,0-0.044,0.124-0.044,0.229c0,4.121,3.368,7.462,7.523,7.462c0.367,0,1.206-0.094,1.206-0.094
				l0.071,0.039c0,0,0.854,0.647,2.394,0.629c2.667,0,4.829-2.144,4.829-4.789c0-1.111-0.291-2.133-0.931-2.945L22.333,715.223z
				 M18.131,719.346c-0.873,0.592-1.89,0.888-3.05,0.888c-1.102,0-2.023-0.136-2.761-0.41c-0.738-0.273-1.209-0.709-1.736-1.164
				c0,0-0.644-0.611,0.177-1.282c0.688-0.6,1.242-0.012,1.242-0.012c0.528,0.546,1.479,1.08,2.745,1.171
				c1.055,0,1.677-0.283,1.938-0.67c0.261-0.387,0.261-0.774,0-1.161c-0.261-0.387-0.937-0.751-1.992-0.843
				c-0.949-0.091-1.82-0.341-2.611-0.751c-0.791-0.41-1.295-1.115-1.295-2.116c0-0.906,0.522-1.741,1.421-2.289
				c0.899-0.548,1.86-0.823,2.809-0.823c1.102,0,1.957,0.221,2.564,0.449c0.607,0.227,1.104,0.827,1.104,0.827
				s0.524,0.529,0.013,1.227c-0.431,0.53-1.125,0.264-1.125,0.264c-0.636-0.456-1.194-0.873-2.053-1.052
				c-1.13-0.126-1.827,0.175-2.091,0.562c-0.264,0.387-0.21,0.986,0.054,1.259c0.264,0.273,1.051,0.532,2.001,0.668
				c1.002,0.091,1.912,0.376,2.73,0.854c0.818,0.478,1.227,1.24,1.227,2.287C19.44,718.048,19.003,718.754,18.131,719.346z M15,700
				c-8.284,0-15,6.716-15,15c0,8.284,6.716,15,15,15s15-6.716,15-15C30,706.716,23.284,700,15,700z M15,727c-6.627,0-12-5.373-12-12
				c0-6.627,5.373-12,12-12s12,5.373,12,12C27,721.627,21.627,727,15,727z"/>
		</g>
	</g>
</g>
<g>
	<g>
		<g>
			<path fill-rule="evenodd" clip-rule="evenodd" fill="#8B98B2" d="M15,525c-8.284,0-15,6.716-15,15c0,8.284,6.716,15,15,15
				s15-6.716,15-15C30,531.716,23.284,525,15,525z M15,552c-6.628,0-12-5.373-12-12c0-6.627,5.372-12,12-12c6.627,0,12,5.373,12,12
				C27,546.627,21.627,552,15,552z M22.257,533.614c-0.985-1.173-2.159-0.508-2.954,0.039c-0.417,0.156-2.007,1.721-2.651,2.503
				c-0.644,0.782,1.136,0.743,1.477,0.626c0.341-0.117,1.439,0.039,0.606,2.073c-0.833,2.034-2.083,3.325-2.461,3.872
				c-0.379,0.548-0.985,0.078-1.212-1.212c-0.227-1.291-1.401-7.588-1.856-7.901c-0.568-1.056-2.234-0.039-2.234-0.039
				c-0.341,0.274-2.916,2.503-3.37,3.286c-0.454,0.782,0.303,1.252,0.379,1.643c0.076,0.391,0.909-0.9,1.326-1.134
				c0.417-0.235,0.644,0,0.72,0.861c0.076,0.86,2.651,7.823,3.446,9.153c0.795,1.33,2.727,0,2.727,0s5.34-6.493,6.703-9.035
				C24.264,535.804,22.863,534.083,22.257,533.614z"/>
		</g>
	</g>
	<g>
		<g>
			<path fill="#8B98B2" d="M9.26,574.583h1.668v-2.379l1.249-4.263l-1.619,0.035c-0.23,1.233-0.393,2.131-0.491,2.833
				c-0.032-0.444-0.175-1.55-0.428-2.833H8.021l1.239,4.228V574.583z M12.164,572.586c0,0.458,0.031,0.801,0.092,1.029
				c0.061,0.229,0.164,0.424,0.308,0.585c0.144,0.161,0.345,0.281,0.605,0.361c0.26,0.08,0.79,0.12,1.164,0.12
				c0.335,0,0.488-0.047,0.747-0.14c0.258-0.093,0.469-0.238,0.634-0.434c0.165-0.196,0.272-0.407,0.322-0.633
				s0.075-0.581,0.075-1.066v-1.319c0-0.382-0.027-0.666-0.082-0.853c-0.054-0.187-0.155-0.368-0.303-0.544
				c-0.148-0.176-0.358-0.318-0.63-0.428c-0.272-0.11-0.455-0.164-0.834-0.164c-0.452,0-1.037,0.085-1.328,0.256
				c-0.29,0.171-0.491,0.396-0.603,0.678c-0.112,0.281-0.167,0.672-0.167,1.173V572.586z M13.855,570.751
				c0-0.276,0.017-0.45,0.05-0.522c0.033-0.072,0.1-0.108,0.201-0.108c0.101,0,0.237,0.036,0.268,0.108
				c0.031,0.072,0.046,0.246,0.046,0.522v2.207c0,0.233-0.016,0.384-0.048,0.455c-0.032,0.07-0.17,0.106-0.27,0.106
				c-0.098,0-0.163-0.039-0.197-0.116c-0.034-0.077-0.05-0.243-0.05-0.497V570.751z M16.623,578.712
				c-0.026-0.063-0.222-0.094-0.299-0.094c-0.076,0-0.125,0.027-0.147,0.082c-0.023,0.055-0.034-0.085-0.034,0.135v1.841
				c0,0.212,0.013,0.348,0.038,0.408c0.026,0.06,0.076,0.089,0.152,0.089c0.078,0,0.271-0.031,0.295-0.092
				c0.023-0.061,0.035-0.209,0.035-0.444v-1.803C16.663,578.63,16.649,578.774,16.623,578.712z M15,560c-8.284,0-15,6.716-15,15
				c0,8.284,6.716,15,15,15s15-6.716,15-15C30,566.716,23.284,560,15,560z M15,587c-6.628,0-12-5.373-12-12c0-6.627,5.372-12,12-12
				c6.627,0,12,5.373,12,12C27,581.627,21.627,587,15,587z M20.143,575.732H9.857c-1.578,0-2.857,1.241-2.857,2.771v1.663
				c0,1.531,1.279,2.771,2.857,2.771h10.286c1.578,0,2.857-1.241,2.857-2.771v-1.663C23,576.973,21.721,575.732,20.143,575.732z
				 M10.968,577.912H10.45v3.89H9.301v-3.89H8.715v-1.068h2.252V577.912z M14.422,581.802H13.16l0.021-0.328
				c-0.086,0.133-0.192,0.233-0.318,0.3c-0.126,0.067-0.271,0.1-0.434,0.1c-0.186,0-0.341-0.032-0.463-0.095
				c-0.123-0.063-0.213-0.148-0.272-0.253c-0.058-0.105-0.095-0.215-0.109-0.329c-0.014-0.114-0.021-0.341-0.021-0.68v-2.595h1.133
				v2.619c0,0.308,0.01,0.49,0.029,0.548c0.019,0.058,0.179,0.086,0.265,0.086c0.092,0,0.218-0.03,0.236-0.089
				c0.017-0.059,0.026-0.251,0.026-0.575v-2.554h1.169V581.802z M17.903,580.7c0,0.29-0.02,0.506-0.06,0.648
				c-0.04,0.142-0.134,0.265-0.281,0.369c-0.147,0.104-0.322,0.156-0.525,0.156c-0.145,0-0.281-0.031-0.407-0.093
				c-0.126-0.062-0.384-0.154-0.488-0.277l-0.08,0.299H15.01v-4.958h1.133v1.418c0.102-0.115,0.359-0.201,0.485-0.258
				c0.126-0.057,0.262-0.085,0.41-0.085c0.17,0,0.317,0.026,0.442,0.077c0.125,0.052,0.22,0.124,0.285,0.217
				c0.065,0.093,0.105,0.185,0.118,0.274c0.013,0.089,0.02,0.003,0.02,0.294V580.7z M21.191,579.619h-1.605v1.131
				c0,0.179,0.013,0.294,0.04,0.345c0.027,0.052,0.078,0.077,0.154,0.077c0.094,0,0.157-0.034,0.189-0.103
				c0.032-0.068,0.048-0.201,0.048-0.397v-0.521h1.175v0.292c0,0.244-0.016,0.432-0.048,0.563c-0.032,0.131-0.106,0.271-0.222,0.42
				c-0.117,0.149-0.265,0.261-0.444,0.335s-0.404,0.112-0.674,0.112c-0.262,0-0.422-0.037-0.622-0.11
				c-0.201-0.073-0.392-0.174-0.504-0.302c-0.112-0.128-0.189-0.269-0.232-0.423c-0.043-0.154-0.064-0.378-0.064-0.671v-1.291
				c0-0.345,0.048-0.341,0.144-0.54c0.096-0.2,0.289-0.352,0.508-0.458c0.219-0.106,0.399-0.159,0.684-0.159
				c0.348,0,0.635,0.064,0.861,0.192c0.226,0.128,0.385,0.298,0.476,0.509c0.091,0.212,0.137,0.37,0.137,0.753V579.619z
				 M19.914,578.707c-0.023-0.06-0.069-0.089-0.138-0.089c-0.086,0-0.139,0.025-0.16,0.076c-0.02,0.051-0.031-0.09-0.031,0.132
				v0.289h0.362v-0.289C19.948,578.622,19.936,578.767,19.914,578.707z M16.892,574.206c0.079,0.143,0.203,0.258,0.37,0.345
				c0.167,0.087,0.449,0.061,0.703,0.061c0.223,0,0.421,0.024,0.592-0.067c0.172-0.091,0.316-0.227,0.433-0.409l-0.029,0.448h1.72
				v-5.491h-1.691v3.729c0,0.441-0.012,0.702-0.036,0.783c-0.024,0.081-0.098,0.122-0.224,0.122c-0.117,0-0.26-0.039-0.287-0.118
				c-0.026-0.078-0.04-0.328-0.04-0.747v-3.77h-1.691v3.737c0,0.463,0.01,0.772,0.029,0.928
				C16.763,573.913,16.812,574.062,16.892,574.206z"/>
		</g>
	</g>
	<g>
		<g>
			<path fill="#8B98B2" d="M22.333,610.223c0.002-0.065,0.003-0.131,0.003-0.196c0-4.121-3.368-7.462-7.523-7.462
				c-0.419,0-0.831,0.034-1.231,0.099l-0.046,0.027c-0.706-0.4-1.523-0.629-2.394-0.629c-2.667,0-4.829,2.144-4.829,4.789
				c0,1.111,0.381,2.133,1.021,2.945c0,0-0.044,0.124-0.044,0.229c0,4.121,3.368,7.462,7.523,7.462c0.367,0,1.206-0.094,1.206-0.094
				l0.071,0.039c0,0,0.854,0.647,2.394,0.629c2.667,0,4.829-2.144,4.829-4.789c0-1.111-0.291-2.133-0.931-2.945L22.333,610.223z
				 M18.131,614.345c-0.873,0.592-1.89,0.888-3.05,0.888c-1.102,0-2.023-0.136-2.761-0.41c-0.738-0.273-1.209-0.709-1.736-1.164
				c0,0-0.644-0.611,0.177-1.282c0.688-0.6,1.242-0.012,1.242-0.012c0.528,0.546,1.479,1.08,2.745,1.171
				c1.055,0,1.677-0.283,1.938-0.67c0.261-0.387,0.261-0.774,0-1.161c-0.261-0.387-0.937-0.751-1.992-0.843
				c-0.949-0.091-1.82-0.341-2.611-0.751c-0.791-0.41-1.295-1.115-1.295-2.116c0-0.906,0.522-1.741,1.421-2.289
				c0.899-0.548,1.86-0.823,2.809-0.823c1.102,0,1.957,0.221,2.564,0.449c0.607,0.227,1.104,0.827,1.104,0.827
				s0.524,0.529,0.013,1.227c-0.431,0.53-1.125,0.264-1.125,0.264c-0.636-0.456-1.194-0.873-2.053-1.052
				c-1.13-0.126-1.827,0.175-2.091,0.562c-0.264,0.387-0.21,0.986,0.054,1.259c0.264,0.273,1.051,0.532,2.001,0.668
				c1.002,0.091,1.912,0.376,2.73,0.854c0.818,0.478,1.227,1.24,1.227,2.287C19.44,613.048,19.003,613.753,18.131,614.345z M15,595
				c-8.284,0-15,6.716-15,15c0,8.284,6.716,15,15,15s15-6.716,15-15C30,601.716,23.284,595,15,595z M15,622c-6.627,0-12-5.373-12-12
				c0-6.627,5.373-12,12-12s12,5.373,12,12C27,616.627,21.627,622,15,622z"/>
		</g>
	</g>
</g>
</svg>
