<?xml version="1.0" encoding="utf-8"?>
<!-- Generator: Adobe Illustrator 17.0.0, SVG Export Plug-In . SVG Version: 6.00 Build 0)  -->
<!DOCTYPE svg PUBLIC "-//W3C//DTD SVG 1.1//EN" "http://www.w3.org/Graphics/SVG/1.1/DTD/svg11.dtd">
<svg version="1.1" id="Layer_1" xmlns="http://www.w3.org/2000/svg" xmlns:xlink="http://www.w3.org/1999/xlink" x="0px" y="0px"
	 width="26px" height="180px" viewBox="0 0 26 180" enable-background="new 0 0 26 180" xml:space="preserve">
<g>
	<g>
		<path fill-rule="evenodd" clip-rule="evenodd" fill="#8B98B2" d="M17.431,14.655c-0.404-0.227-0.816-0.447-1.213-0.681
			c-0.185-0.114-0.412-0.326-0.632-0.326c-0.433,0-1.064,1.284-1.448,1.284c-0.192,0-0.44-0.177-0.61-0.277
			c-1.291-0.716-2.186-1.611-2.902-2.902c-0.099-0.17-0.277-0.419-0.277-0.61c0-0.384,1.284-1.015,1.284-1.448
			c0-0.22-0.213-0.447-0.327-0.632c-0.234-0.397-0.454-0.808-0.681-1.213c-0.071-0.142-0.227-0.489-0.376-0.539
			C10.2,7.289,10.15,7.289,10.1,7.289c-0.255,0-0.752,0.114-0.986,0.221C8.766,7.659,8.539,8.056,8.362,8.376
			C8.135,8.794,8,9.22,8,9.695c0,0.66,0.27,1.256,0.49,1.859c0.156,0.433,0.348,0.852,0.589,1.242
			c0.745,1.206,2.2,2.661,3.406,3.406c0.39,0.241,0.809,0.433,1.242,0.589c0.603,0.22,1.199,0.489,1.859,0.489
			c0.476,0,0.901-0.135,1.32-0.362c0.319-0.177,0.717-0.404,0.866-0.752c0.106-0.234,0.22-0.731,0.22-0.986
			c0-0.05,0-0.099-0.021-0.149C17.92,14.882,17.573,14.726,17.431,14.655z M13,0c-7.18,0-13,5.82-13,13c0,7.18,5.82,13,13,13
			s13-5.82,13-13C26,5.82,20.18,0,13,0z M13,23.4c-5.744,0-10.4-4.656-10.4-10.4C2.6,7.256,7.256,2.6,13,2.6
			c5.744,0,10.4,4.656,10.4,10.4C23.4,18.743,18.744,23.4,13,23.4z"/>
	</g>
</g>
<g>
	<g>
		<path fill-rule="evenodd" clip-rule="evenodd" fill="#8B98B2" d="M17.103,39H8.889c-0.597,0-0.893,0.477-0.893,1.034
			c0,0.517,0.564,1.159,0.96,1.432c0.865,0.613,1.741,1.227,2.606,1.846c0.363,0.256,0.977,0.778,1.428,0.778h0.011
			c0.452,0,1.066-0.523,1.428-0.778c0.865-0.619,1.741-1.233,2.612-1.846c0.491-0.347,0.954-0.921,0.954-1.557
			C17.996,39.409,17.588,39,17.103,39z M14.659,44.034c-0.469,0.352-1.049,0.784-1.657,0.784H12.99
			c-0.608,0-1.188-0.432-1.657-0.784c-0.91-0.676-1.847-1.318-2.773-1.96c-0.206-0.142-0.396-0.307-0.564-0.494v4.511
			c0,0.5,0.402,0.909,0.893,0.909h8.214c0.491,0,0.893-0.409,0.893-0.909v-4.511c-0.167,0.187-0.357,0.352-0.558,0.494
			C16.506,42.716,15.568,43.363,14.659,44.034z M12.996,30c-7.18,0-13,5.82-13,13c0,7.18,5.82,13,13,13s13-5.82,13-13
			C25.996,35.82,20.175,30,12.996,30z M12.996,53.4c-5.744,0-10.4-4.656-10.4-10.4c0-5.744,4.656-10.4,10.4-10.4
			s10.4,4.656,10.4,10.4C23.396,48.743,18.739,53.4,12.996,53.4z"/>
	</g>
</g>
<g>
	<g>
		<path fill-rule="evenodd" clip-rule="evenodd" fill="#8B98B2" d="M13.491,67.289c-1.932,0-3.495,1.638-3.495,3.662
			c0,0.436,0.048,0.887,0.225,1.28l2.492,5.535c0.137,0.315,0.451,0.508,0.778,0.508c0.328,0,0.642-0.193,0.785-0.508l2.485-5.535
			c0.178-0.393,0.225-0.844,0.225-1.28C16.986,68.928,15.423,67.289,13.491,67.289z M13.491,72.782
			c-0.963,0-1.748-0.822-1.748-1.831c0-1.009,0.785-1.831,1.748-1.831c0.963,0,1.748,0.822,1.748,1.831
			C15.238,71.96,14.454,72.782,13.491,72.782z M12.996,60c-7.18,0-13,5.82-13,13c0,7.18,5.82,13,13,13s13-5.82,13-13
			C25.996,65.82,20.175,60,12.996,60z M12.996,83.4c-5.744,0-10.4-4.656-10.4-10.4c0-5.744,4.656-10.4,10.4-10.4
			c5.744,0,10.4,4.656,10.4,10.4C23.396,78.743,18.739,83.4,12.996,83.4z"/>
	</g>
</g>
<g>
	<g>
		<path fill-rule="evenodd" clip-rule="evenodd" fill="#83C8F0" d="M17.431,104.655c-0.404-0.227-0.816-0.447-1.213-0.681
			c-0.185-0.114-0.412-0.326-0.632-0.326c-0.433,0-1.064,1.284-1.448,1.284c-0.192,0-0.44-0.177-0.61-0.277
			c-1.291-0.716-2.185-1.611-2.902-2.902c-0.099-0.17-0.277-0.419-0.277-0.61c0-0.384,1.284-1.015,1.284-1.448
			c0-0.22-0.213-0.447-0.326-0.632c-0.234-0.397-0.454-0.808-0.681-1.213c-0.071-0.142-0.227-0.489-0.376-0.539
			c-0.05-0.021-0.099-0.021-0.149-0.021c-0.255,0-0.752,0.114-0.986,0.221c-0.348,0.149-0.575,0.546-0.752,0.866
			C8.135,98.794,8,99.22,8,99.695c0,0.66,0.27,1.256,0.49,1.859c0.156,0.433,0.348,0.852,0.589,1.242
			c0.745,1.206,2.2,2.661,3.406,3.406c0.39,0.241,0.809,0.433,1.242,0.589c0.603,0.22,1.199,0.489,1.859,0.489
			c0.476,0,0.901-0.135,1.32-0.362c0.319-0.177,0.717-0.404,0.866-0.752c0.106-0.234,0.22-0.731,0.22-0.986
			c0-0.05,0-0.099-0.021-0.149C17.92,104.882,17.573,104.726,17.431,104.655z M13,90c-7.18,0-13,5.82-13,13c0,7.18,5.82,13,13,13
			s13-5.82,13-13C26,95.82,20.18,90,13,90z M13,113.399c-5.744,0-10.4-4.656-10.4-10.4c0-5.744,4.656-10.4,10.4-10.4
			s10.4,4.656,10.4,10.4C23.4,108.743,18.744,113.399,13,113.399z"/>
	</g>
</g>
<g>
	<g>
		<path fill-rule="evenodd" clip-rule="evenodd" fill="#83C8F0" d="M14.659,134.034c-0.469,0.352-1.049,0.784-1.657,0.784H12.99
			c-0.608,0-1.189-0.432-1.657-0.784c-0.91-0.676-1.847-1.318-2.773-1.96c-0.206-0.142-0.396-0.307-0.564-0.494v4.511
			c0,0.5,0.402,0.909,0.893,0.909h8.214c0.491,0,0.893-0.409,0.893-0.909v-4.511c-0.168,0.187-0.357,0.352-0.558,0.494
			C16.506,132.716,15.568,133.363,14.659,134.034z M17.103,129H8.889c-0.597,0-0.893,0.477-0.893,1.034
			c0,0.517,0.564,1.159,0.96,1.432c0.865,0.613,1.741,1.227,2.606,1.846c0.363,0.256,0.977,0.778,1.429,0.778h0.011
			c0.452,0,1.066-0.523,1.428-0.778c0.865-0.619,1.741-1.233,2.612-1.846c0.491-0.347,0.954-0.92,0.954-1.557
			C17.996,129.409,17.588,129,17.103,129z M12.996,120c-7.18,0-13,5.82-13,13c0,7.18,5.82,13,13,13c7.18,0,13-5.82,13-13
			C25.996,125.82,20.175,120,12.996,120z M12.996,143.399c-5.744,0-10.4-4.656-10.4-10.4c0-5.744,4.656-10.4,10.4-10.4
			c5.744,0,10.4,4.656,10.4,10.4C23.396,138.743,18.739,143.399,12.996,143.399z"/>
	</g>
</g>
<g>
	<g>
		<path fill-rule="evenodd" clip-rule="evenodd" fill="#83C8F0" d="M13.491,157.289c-1.932,0-3.495,1.638-3.495,3.662
			c0,0.436,0.048,0.887,0.225,1.28l2.492,5.536c0.136,0.315,0.451,0.508,0.778,0.508c0.328,0,0.642-0.193,0.785-0.508l2.485-5.536
			c0.177-0.393,0.225-0.844,0.225-1.28C16.986,158.928,15.423,157.289,13.491,157.289z M13.491,162.782
			c-0.963,0-1.748-0.823-1.748-1.831c0-1.009,0.785-1.831,1.748-1.831s1.748,0.822,1.748,1.831
			C15.239,161.96,14.453,162.782,13.491,162.782z M12.996,150c-7.18,0-13,5.82-13,13c0,7.18,5.82,13,13,13c7.18,0,13-5.82,13-13
			C25.996,155.82,20.175,150,12.996,150z M12.996,173.399c-5.744,0-10.4-4.656-10.4-10.4c0-5.744,4.656-10.4,10.4-10.4
			c5.744,0,10.4,4.656,10.4,10.4C23.396,168.743,18.739,173.399,12.996,173.399z"/>
	</g>
</g>
</svg>
