<?xml version="1.0" encoding="utf-8"?>
<!-- Generator: Adobe Illustrator 17.0.0, SVG Export Plug-In . SVG Version: 6.00 Build 0)  -->
<!DOCTYPE svg PUBLIC "-//W3C//DTD SVG 1.1//EN" "http://www.w3.org/Graphics/SVG/1.1/DTD/svg11.dtd">
<svg version="1.1" id="Layer_1" xmlns="http://www.w3.org/2000/svg" xmlns:xlink="http://www.w3.org/1999/xlink" x="0px" y="0px"
	 width="20px" height="80px" viewBox="0 0 20 80" enable-background="new 0 0 20 80" xml:space="preserve">
<path fill-rule="evenodd" clip-rule="evenodd" fill="#E5E5DA" d="M10,20C4.477,20,0,15.523,0,10C0,4.477,4.477,0,10,0
	s10,4.477,10,10C20,15.523,15.523,20,10,20z M10,2c-4.418,0-8,3.582-8,8c0,4.418,3.582,8,8,8s8-3.582,8-8C18,5.582,14.418,2,10,2z
	 M11.667,4.453v11.106L6.111,9.987L11.667,4.453z"/>
<path fill-rule="evenodd" clip-rule="evenodd" fill="#212C43" d="M10,60C4.477,60,0,55.523,0,50c0-5.523,4.477-10,10-10
	s10,4.477,10,10C20,55.523,15.523,60,10,60z M10,42c-4.418,0-8,3.582-8,8c0,4.418,3.582,8,8,8s8-3.582,8-8
	C18,45.582,14.418,42,10,42z M11.667,44.453v11.106l-5.556-5.572L11.667,44.453z"/>
<path fill-rule="evenodd" clip-rule="evenodd" fill="#E5E5DA" d="M10,40c5.523,0,10-4.477,10-10c0-5.523-4.477-10-10-10
	C4.477,20,0,24.477,0,30C0,35.522,4.477,40,10,40z M10,22c4.418,0,8,3.582,8,8c0,4.418-3.582,8-8,8c-4.418,0-8-3.582-8-8
	C2,25.581,5.582,22,10,22z M8.333,24.453v11.106l5.556-5.572L8.333,24.453z"/>
<path fill-rule="evenodd" clip-rule="evenodd" fill="#212C43" d="M10,80c5.523,0,10-4.477,10-10c0-5.523-4.477-10-10-10
	C4.477,60,0,64.477,0,70C0,75.523,4.477,80,10,80z M10,62c4.418,0,8,3.582,8,8c0,4.418-3.582,8-8,8c-4.418,0-8-3.582-8-8
	C2,65.582,5.582,62,10,62z M8.333,64.453v11.106l5.556-5.572L8.333,64.453z"/>
</svg>
