<?xml version="1.0" encoding="utf-8"?>
<!-- Generator: Adobe Illustrator 17.0.0, SVG Export Plug-In . SVG Version: 6.00 Build 0)  -->
<!DOCTYPE svg PUBLIC "-//W3C//DTD SVG 1.1//EN" "http://www.w3.org/Graphics/SVG/1.1/DTD/svg11.dtd">
<svg version="1.1" id="Layer_1" xmlns="http://www.w3.org/2000/svg" xmlns:xlink="http://www.w3.org/1999/xlink" x="0px" y="0px"
	 width="10px" height="10px" viewBox="0 0 10 10" enable-background="new 0 0 10 10" xml:space="preserve">
<path fill-rule="evenodd" clip-rule="evenodd" fill="#212C43" d="M9.999,5c0,0.693-0.129,1.341-0.388,1.949
	C9.352,7.556,8.995,8.085,8.54,8.537C8.085,8.99,7.555,9.346,6.95,9.607C6.345,9.868,5.696,9.998,5.003,9.998
	c-0.692,0-1.342-0.13-1.949-0.392C2.446,9.346,1.916,8.99,1.462,8.537c-0.452-0.452-0.81-0.982-1.07-1.589
	C0.132,6.341,0.001,5.693,0.001,5c0-0.693,0.13-1.341,0.391-1.949c0.261-0.608,0.618-1.136,1.07-1.589
	c0.454-0.453,0.984-0.809,1.591-1.071c0.607-0.26,1.257-0.39,1.949-0.39c0.694,0,1.342,0.13,1.948,0.39
	c0.605,0.262,1.135,0.618,1.59,1.071c0.455,0.453,0.812,0.981,1.07,1.589C9.87,3.658,9.999,4.306,9.999,5z M4.696,8.371
	C4.78,8.454,4.88,8.497,4.994,8.497c0.115,0,0.221-0.042,0.317-0.125l3.061-3.065C8.455,5.223,8.497,5.121,8.499,5
	c0.003-0.121-0.041-0.223-0.128-0.306L5.31,1.628C5.227,1.545,5.125,1.503,5.003,1.503c-0.12,0-0.222,0.042-0.306,0.125L4.234,2.091
	c-0.084,0.083-0.128,0.182-0.129,0.3c-0.001,0.116,0.041,0.22,0.129,0.312l1.54,1.539H1.935c-0.12,0-0.222,0.041-0.306,0.123
	c-0.083,0.08-0.125,0.181-0.125,0.302v0.651c0,0.121,0.044,0.224,0.129,0.31c0.086,0.086,0.186,0.128,0.303,0.128h3.839l-1.54,1.539
	C4.149,7.38,4.106,7.481,4.105,7.599C4.103,7.718,4.146,7.821,4.234,7.908L4.696,8.371L4.696,8.371z"/>
</svg>
