<?xml version="1.0" encoding="utf-8"?>
<!-- Generator: Adobe Illustrator 17.0.0, SVG Export Plug-In . SVG Version: 6.00 Build 0)  -->
<!DOCTYPE svg PUBLIC "-//W3C//DTD SVG 1.1//EN" "http://www.w3.org/Graphics/SVG/1.1/DTD/svg11.dtd">
<svg version="1.1" xmlns="http://www.w3.org/2000/svg" xmlns:xlink="http://www.w3.org/1999/xlink" x="0px" y="0px" width="20px"
	 height="100px" viewBox="0 0 20 100" enable-background="new 0 0 20 100" xml:space="preserve">
<g id="Layer_1">
	<g>
		<g>
			<path fill-rule="evenodd" clip-rule="evenodd" fill="#E9E8DD" d="M10.409,25.562c-0.115-0.115-0.252-0.173-0.408-0.173
				c-0.155,0-0.293,0.058-0.408,0.173l-0.6,0.601c-0.116,0.117-0.174,0.251-0.174,0.406c0,0.154,0.057,0.288,0.174,0.403L11.021,29
				H5.953c-0.156,0-0.289,0.054-0.4,0.164c-0.109,0.111-0.165,0.244-0.165,0.399v0.863c0,0.164,0.056,0.301,0.165,0.412
				c0.11,0.11,0.244,0.165,0.4,0.165h5.068L8.992,33.03c-0.116,0.111-0.174,0.245-0.174,0.402c0,0.156,0.057,0.292,0.174,0.408
				l0.6,0.599c0.115,0.115,0.253,0.174,0.408,0.174c0.156,0,0.293-0.058,0.408-0.174l4.03-4.037
				c0.115-0.115,0.174-0.249,0.174-0.401c0-0.152-0.059-0.287-0.174-0.402L10.409,25.562z M10,20C4.477,20,0,24.477,0,30
				c0,5.522,4.477,10,10,10c5.523,0,10-4.478,10-10C20,24.477,15.523,20,10,20z M10,38c-4.418,0-8-3.582-8-8c0-4.419,3.582-8,8-8
				c4.418,0,8,3.581,8,8C18,34.418,14.418,38,10,38z"/>
		</g>
	</g>
</g>
<g id="Layer_1_copy_2">
	<g>
		<g>
			<path fill-rule="evenodd" clip-rule="evenodd" fill="#83C8F0" d="M10.409,45.562c-0.115-0.115-0.252-0.173-0.408-0.173
				c-0.155,0-0.293,0.058-0.408,0.173l-0.6,0.601c-0.116,0.117-0.174,0.251-0.174,0.406c0,0.154,0.057,0.288,0.174,0.403L11.021,49
				H5.953c-0.156,0-0.289,0.054-0.4,0.164c-0.109,0.111-0.165,0.244-0.165,0.399v0.863c0,0.164,0.056,0.301,0.165,0.412
				c0.11,0.11,0.244,0.165,0.4,0.165h5.068L8.992,53.03c-0.116,0.111-0.174,0.245-0.174,0.402c0,0.156,0.057,0.292,0.174,0.408
				l0.6,0.599c0.115,0.115,0.253,0.174,0.408,0.174c0.156,0,0.293-0.058,0.408-0.174l4.03-4.037
				c0.115-0.115,0.174-0.249,0.174-0.401c0-0.152-0.059-0.287-0.174-0.402L10.409,45.562z M10,40C4.477,40,0,44.477,0,50
				c0,5.522,4.477,10,10,10c5.523,0,10-4.478,10-10C20,44.477,15.523,40,10,40z M10,58c-4.418,0-8-3.582-8-8c0-4.419,3.582-8,8-8
				c4.418,0,8,3.581,8,8C18,54.418,14.418,58,10,58z"/>
		</g>
	</g>
</g>
<g id="Layer_1_copy_3">
	<g>
		<g>
			<path fill-rule="evenodd" clip-rule="evenodd" fill="#FFFFFF" d="M10.409,65.562c-0.115-0.115-0.252-0.173-0.408-0.173
				c-0.155,0-0.293,0.058-0.408,0.173l-0.6,0.601c-0.116,0.117-0.174,0.251-0.174,0.406c0,0.154,0.057,0.288,0.174,0.403L11.021,69
				H5.953c-0.156,0-0.289,0.054-0.4,0.164c-0.109,0.111-0.165,0.244-0.165,0.399v0.863c0,0.164,0.056,0.301,0.165,0.412
				c0.11,0.11,0.244,0.165,0.4,0.165h5.068L8.992,73.03c-0.116,0.111-0.174,0.245-0.174,0.402c0,0.156,0.057,0.292,0.174,0.408
				l0.6,0.599c0.115,0.115,0.253,0.174,0.408,0.174c0.156,0,0.293-0.058,0.408-0.174l4.03-4.037
				c0.115-0.115,0.174-0.249,0.174-0.401c0-0.152-0.059-0.287-0.174-0.402L10.409,65.562z M10,60C4.477,60,0,64.477,0,70
				c0,5.522,4.477,10,10,10c5.523,0,10-4.478,10-10C20,64.477,15.523,60,10,60z M10,78c-4.418,0-8-3.582-8-8c0-4.419,3.582-8,8-8
				c4.418,0,8,3.581,8,8C18,74.418,14.418,78,10,78z"/>
		</g>
	</g>
</g>
<g id="Layer_1_copy_4">
	<g>
		<g>
			<path fill-rule="evenodd" clip-rule="evenodd" fill="#8B98B2" d="M10.409,85.562c-0.115-0.115-0.252-0.173-0.408-0.173
				c-0.155,0-0.293,0.058-0.408,0.173l-0.6,0.601c-0.116,0.117-0.174,0.251-0.174,0.406c0,0.154,0.057,0.288,0.174,0.403L11.021,89
				H5.953c-0.156,0-0.289,0.054-0.4,0.164c-0.109,0.111-0.165,0.244-0.165,0.399v0.863c0,0.164,0.056,0.301,0.165,0.412
				c0.11,0.11,0.244,0.165,0.4,0.165h5.068L8.992,93.03c-0.116,0.111-0.174,0.245-0.174,0.402c0,0.156,0.057,0.292,0.174,0.408
				l0.6,0.599c0.115,0.115,0.253,0.174,0.408,0.174c0.156,0,0.293-0.058,0.408-0.174l4.03-4.037
				c0.115-0.115,0.174-0.249,0.174-0.401c0-0.152-0.059-0.287-0.174-0.402L10.409,85.562z M10,80C4.477,80,0,84.477,0,90
				c0,5.522,4.477,10,10,10c5.523,0,10-4.478,10-10C20,84.477,15.523,80,10,80z M10,98c-4.418,0-8-3.582-8-8c0-4.419,3.582-8,8-8
				c4.418,0,8,3.581,8,8C18,94.418,14.418,98,10,98z"/>
		</g>
	</g>
</g>
<g id="Layer_1_copy">
	<g>
		<g>
			<path fill-rule="evenodd" clip-rule="evenodd" fill="#212C43" d="M10.409,5.562c-0.115-0.115-0.252-0.173-0.408-0.173
				c-0.155,0-0.293,0.058-0.408,0.173l-0.6,0.601C8.876,6.279,8.819,6.414,8.819,6.568c0,0.154,0.057,0.288,0.174,0.403L11.021,9
				H5.953c-0.156,0-0.289,0.054-0.4,0.164C5.445,9.274,5.389,9.407,5.389,9.563v0.863c0,0.164,0.056,0.301,0.165,0.412
				c0.11,0.11,0.244,0.165,0.4,0.165h5.068L8.992,13.03c-0.116,0.111-0.174,0.245-0.174,0.402c0,0.156,0.057,0.292,0.174,0.408
				l0.6,0.599c0.115,0.115,0.253,0.174,0.408,0.174c0.156,0,0.293-0.058,0.408-0.174l4.03-4.037
				c0.115-0.115,0.174-0.249,0.174-0.401c0-0.152-0.059-0.287-0.174-0.402L10.409,5.562z M10,0C4.477,0,0,4.477,0,10
				c0,5.522,4.477,10,10,10c5.523,0,10-4.478,10-10C20,4.477,15.523,0,10,0z M10,18c-4.418,0-8-3.582-8-8c0-4.419,3.582-8,8-8
				c4.418,0,8,3.581,8,8C18,14.418,14.418,18,10,18z"/>
		</g>
	</g>
</g>
</svg>
