<?xml version="1.0" encoding="utf-8"?>
<!-- Generator: Adobe Illustrator 17.0.0, SVG Export Plug-In . SVG Version: 6.00 Build 0)  -->
<!DOCTYPE svg PUBLIC "-//W3C//DTD SVG 1.1//EN" "http://www.w3.org/Graphics/SVG/1.1/DTD/svg11.dtd">
<svg version="1.1" id="Layer_1" xmlns="http://www.w3.org/2000/svg" xmlns:xlink="http://www.w3.org/1999/xlink" x="0px" y="0px"
	 width="66px" height="132px" viewBox="0 0 66 132" enable-background="new 0 0 66 132" xml:space="preserve">
<g>
	<g>
		<g>
			<path fill="#83C8F0" d="M28.687,30.755c0.051,0.324,0.19,0.6,0.417,0.827c0.208,0.208,0.463,0.337,0.766,0.39
				c0.303,0.054,0.637,0.007,1.001-0.137l-2.031-2.031C28.687,30.112,28.637,30.43,28.687,30.755z M34.845,32.586
				c-0.344-0.035-0.743,0.072-1.197,0.323l2.289,2.289c0.239-0.348,0.341-0.723,0.308-1.124c-0.033-0.401-0.197-0.748-0.49-1.042
				C35.492,32.769,35.189,32.621,34.845,32.586z M44.626,32.375L32.488,21.393c-0.766-0.766-11.246-0.401-11.246-0.401
				s-0.633,11.868,0.026,11.965l12.232,11.388c0.781,0.781,2.047,0.781,2.828,0l7.591-8.435
				C44.7,35.129,45.407,33.156,44.626,32.375z M23.545,26.436c-0.815-0.815-0.815-2.137,0-2.953s2.138-0.815,2.953,0
				c0.816,0.815,0.816,2.138,0,2.953C25.683,27.251,24.361,27.251,23.545,26.436z M37.48,38.443l-1.068-1.069
				c-0.759,0.595-1.561,0.892-2.406,0.892c-0.845,0-1.712-0.326-2.6-0.98l1.368-1.697c0.376,0.251,0.763,0.404,1.162,0.458
				c0.399,0.055,0.755,0.028,1.068-0.082l-2.459-2.459c-0.986,0.548-1.88,0.779-2.682,0.693s-1.52-0.446-2.154-1.08
				c-0.642-0.642-0.978-1.383-1.01-2.225c-0.031-0.841,0.256-1.631,0.863-2.371l-0.581-0.581l0.851-0.851l0.581,0.581
				c0.697-0.547,1.404-0.83,2.122-0.847c0.718-0.018,1.421,0.216,2.11,0.701l-1.291,1.679c-0.552-0.372-1.1-0.45-1.643-0.235
				l2.295,2.295c1.194-0.685,2.163-0.995,2.908-0.93c0.746,0.064,1.435,0.414,2.069,1.048c0.708,0.708,1.091,1.519,1.148,2.433
				c0.057,0.914-0.242,1.807-0.895,2.68l1.098,1.098L37.48,38.443z"/>
		</g>
	</g>
	<g>
		<g>
			<path fill-rule="evenodd" clip-rule="evenodd" fill="#83C8F0" d="M33,0C14.775,0,0,14.775,0,33c0,18.225,14.775,33,33,33
				c18.225,0,33-14.775,33-33C66,14.775,51.225,0,33,0z M33,64C15.879,64,2,50.121,2,33C2,15.879,15.879,2,33,2
				c17.121,0,31,13.879,31,31C64,50.121,50.121,64,33,64z"/>
		</g>
	</g>
</g>
<g>
	<g>
		<g>
			<path fill-rule="evenodd" clip-rule="evenodd" fill="#83C8F0" d="M33.062,86.33c-7.18,0-13,5.82-13,13c0,7.18,5.82,13,13,13
				c7.18,0,13-5.82,13-13C46.062,92.151,40.242,86.33,33.062,86.33z M32.957,109.857c-5.799,0-10.5-4.701-10.5-10.5
				c0-5.799,4.701-10.5,10.5-10.5c5.799,0,10.5,4.701,10.5,10.5C43.457,105.156,38.756,109.857,32.957,109.857z M35.991,99.961
				h-2.979v-5.031c0-0.547-0.443-0.99-0.99-0.99c-0.547,0-0.99,0.443-0.99,0.99v6.021c0,0.547,0.443,0.99,0.99,0.99h3.969
				c0.547,0,0.99-0.443,0.99-0.99C36.981,100.404,36.538,99.961,35.991,99.961z"/>
		</g>
	</g>
	<g>
		<g>
			<path fill-rule="evenodd" clip-rule="evenodd" fill="#83C8F0" d="M33,66C14.775,66,0,80.774,0,99c0,18.225,14.775,33,33,33
				c18.225,0,33-14.775,33-33C66,80.774,51.225,66,33,66z M33,130c-17.121,0-31-13.879-31-31c0-17.121,13.879-31,31-31
				c17.121,0,31,13.879,31,31C64,116.121,50.121,130,33,130z"/>
		</g>
	</g>
</g>
</svg>
