<?xml version="1.0" encoding="utf-8"?>
<!-- Generator: Adobe Illustrator 17.0.0, SVG Export Plug-In . SVG Version: 6.00 Build 0)  -->
<!DOCTYPE svg PUBLIC "-//W3C//DTD SVG 1.1//EN" "http://www.w3.org/Graphics/SVG/1.1/DTD/svg11.dtd">
<svg version="1.1" id="Layer_1" xmlns="http://www.w3.org/2000/svg" xmlns:xlink="http://www.w3.org/1999/xlink" x="0px" y="0px"
	 width="36px" height="144px" viewBox="0 0 36 144" enable-background="new 0 0 36 144" xml:space="preserve">
<g>
	<g>
		<path fill-rule="evenodd" clip-rule="evenodd" fill="#FFFFFF" d="M21,28.006V8.015l-10,9.961L21,28.006z M18,0
			C8.059,0,0,8.059,0,18c0,9.941,8.059,18,18,18c9.941,0,18-8.059,18-18C36,8.059,27.941,0,18,0z M18,32.4
			c-7.953,0-14.4-6.447-14.4-14.4c0-7.953,6.447-14.4,14.4-14.4c7.953,0,14.4,6.447,14.4,14.4C32.4,25.953,25.953,32.4,18,32.4z"/>
	</g>
</g>
<g>
	<g>
		<path fill-rule="evenodd" clip-rule="evenodd" fill="#FFFFFF" d="M15,64.506l10-10.03l-10-9.961V64.506z M18,36
			C8.059,36,0,44.059,0,54c0,9.941,8.059,18,18,18c9.941,0,18-8.059,18-18C36,44.059,27.941,36,18,36z M18,68.4
			c-7.953,0-14.4-6.447-14.4-14.4c0-7.953,6.447-14.4,14.4-14.4c7.953,0,14.4,6.447,14.4,14.4C32.4,61.953,25.953,68.4,18,68.4z"/>
	</g>
</g>
<g>
	<g>
		<path fill-rule="evenodd" clip-rule="evenodd" fill="#212C43" d="M21,99.507V79.516l-10,9.961L21,99.507z M18,72
			C8.059,72,0,80.059,0,90c0,9.941,8.059,18,18,18c9.941,0,18-8.059,18-18C36,80.059,27.941,72,18,72z M18,104.4
			c-7.953,0-14.4-6.447-14.4-14.4c0-7.953,6.447-14.4,14.4-14.4c7.953,0,14.4,6.447,14.4,14.4C32.4,97.953,25.953,104.4,18,104.4z"
			/>
	</g>
</g>
<g>
	<g>
		<path fill-rule="evenodd" clip-rule="evenodd" fill="#212C43" d="M15,136.007l10-10.03l-10-9.961V136.007z M18,108
			c-9.941,0-18,8.059-18,18c0,9.941,8.059,18,18,18c9.941,0,18-8.059,18-18C36,116.059,27.941,108,18,108z M18,140.4
			c-7.953,0-14.4-6.447-14.4-14.4c0-7.953,6.447-14.4,14.4-14.4c7.953,0,14.4,6.447,14.4,14.4C32.4,133.953,25.953,140.4,18,140.4z"
			/>
	</g>
</g>
</svg>
