<?xml version="1.0" encoding="utf-8"?>
<!-- Generator: Adobe Illustrator 17.0.0, SVG Export Plug-In . SVG Version: 6.00 Build 0)  -->
<!DOCTYPE svg PUBLIC "-//W3C//DTD SVG 1.1//EN" "http://www.w3.org/Graphics/SVG/1.1/DTD/svg11.dtd">
<svg version="1.1" xmlns="http://www.w3.org/2000/svg" xmlns:xlink="http://www.w3.org/1999/xlink" x="0px" y="0px" width="26px"
	 height="52px" viewBox="0 0 26 52" enable-background="new 0 0 26 52" xml:space="preserve">
<g id="Layer_1">
	<g>
		<g>
			<path fill-rule="evenodd" clip-rule="evenodd" fill="#212C43" d="M13,0C5.82,0,0,5.821,0,13s5.82,13,13,13c7.18,0,13-5.82,13-13
				S20.18,0,13,0z M13,23.4C7.256,23.4,2.6,18.744,2.6,13C2.6,7.256,7.256,2.6,13,2.6c5.744,0,10.4,4.656,10.4,10.4
				C23.4,18.744,18.744,23.4,13,23.4z M15.91,14.603c0.243-0.371,0.43-0.771,0.561-1.2c0.131-0.428,0.197-0.867,0.197-1.318
				c0-0.628-0.119-1.22-0.358-1.775c-0.239-0.556-0.567-1.042-0.987-1.46C14.9,8.432,14.414,8.103,13.86,7.863
				c-0.553-0.24-1.143-0.361-1.773-0.361c-0.634,0-1.226,0.121-1.78,0.361c-0.554,0.24-1.04,0.57-1.46,0.987
				c-0.421,0.419-0.75,0.904-0.989,1.46c-0.239,0.555-0.358,1.147-0.358,1.775c0,0.629,0.119,1.221,0.358,1.776
				c0.239,0.556,0.568,1.042,0.989,1.459c0.42,0.418,0.908,0.747,1.462,0.985c0.556,0.239,1.148,0.357,1.777,0.357
				c0.45,0,0.888-0.064,1.315-0.197c0.427-0.129,0.829-0.317,1.205-0.56l2.472,2.464c0.083,0.087,0.191,0.13,0.323,0.13
				c0.074,0,0.171-0.042,0.294-0.128c0.121-0.084,0.244-0.188,0.368-0.309c0.124-0.121,0.228-0.244,0.31-0.368
				c0.081-0.124,0.124-0.223,0.124-0.296c0-0.133-0.042-0.24-0.124-0.324L15.91,14.603z M14.614,13.163
				c-0.147,0.331-0.344,0.62-0.593,0.866c-0.247,0.246-0.538,0.441-0.871,0.585c-0.333,0.145-0.687,0.216-1.063,0.216
				s-0.732-0.072-1.068-0.216c-0.334-0.145-0.627-0.34-0.874-0.585c-0.249-0.246-0.445-0.535-0.593-0.866
				c-0.148-0.333-0.221-0.692-0.221-1.078c0-0.376,0.073-0.73,0.221-1.063c0.147-0.333,0.344-0.625,0.593-0.875
				c0.247-0.25,0.539-0.447,0.874-0.591c0.336-0.145,0.691-0.218,1.068-0.218s0.73,0.073,1.063,0.218
				c0.333,0.144,0.624,0.341,0.871,0.591c0.249,0.25,0.445,0.542,0.593,0.875c0.148,0.333,0.221,0.687,0.221,1.063
				C14.835,12.47,14.762,12.83,14.614,13.163z"/>
		</g>
	</g>
</g>
<g id="Layer_1_copy">
	<g>
		<g>
			<path fill-rule="evenodd" clip-rule="evenodd" fill="#83C8F0" d="M13,26C5.82,26,0,31.821,0,39s5.82,13,13,13
				c7.18,0,13-5.82,13-13S20.18,26,13,26z M13,49.4C7.256,49.4,2.6,44.744,2.6,39c0-5.744,4.656-10.4,10.4-10.4
				c5.744,0,10.4,4.656,10.4,10.4C23.4,44.744,18.744,49.4,13,49.4z M15.91,40.603c0.243-0.371,0.43-0.771,0.561-1.2
				c0.131-0.428,0.197-0.867,0.197-1.318c0-0.628-0.119-1.22-0.358-1.775c-0.239-0.556-0.567-1.042-0.987-1.46
				c-0.421-0.417-0.907-0.747-1.461-0.987c-0.553-0.24-1.143-0.361-1.773-0.361c-0.634,0-1.226,0.121-1.78,0.361
				c-0.554,0.24-1.04,0.57-1.46,0.987c-0.421,0.419-0.75,0.904-0.989,1.46c-0.239,0.555-0.358,1.147-0.358,1.775
				c0,0.629,0.119,1.221,0.358,1.776c0.239,0.556,0.568,1.042,0.989,1.459c0.42,0.418,0.908,0.747,1.462,0.985
				c0.556,0.239,1.148,0.357,1.777,0.357c0.45,0,0.888-0.064,1.315-0.197c0.427-0.129,0.829-0.317,1.205-0.56l2.472,2.464
				c0.083,0.087,0.191,0.13,0.323,0.13c0.074,0,0.171-0.042,0.294-0.128c0.121-0.084,0.244-0.188,0.368-0.309
				c0.124-0.121,0.228-0.244,0.31-0.368c0.081-0.124,0.124-0.223,0.124-0.296c0-0.133-0.042-0.24-0.124-0.324L15.91,40.603z
				 M14.614,39.163c-0.147,0.331-0.344,0.62-0.593,0.866c-0.247,0.246-0.538,0.441-0.871,0.585
				c-0.333,0.145-0.687,0.216-1.063,0.216s-0.732-0.072-1.068-0.216c-0.334-0.145-0.627-0.34-0.874-0.585
				c-0.249-0.246-0.445-0.535-0.593-0.866c-0.148-0.333-0.221-0.692-0.221-1.078c0-0.376,0.073-0.73,0.221-1.063
				c0.147-0.333,0.344-0.625,0.593-0.875c0.247-0.25,0.539-0.447,0.874-0.591c0.336-0.145,0.691-0.218,1.068-0.218
				s0.73,0.073,1.063,0.218c0.333,0.144,0.624,0.341,0.871,0.591c0.249,0.25,0.445,0.542,0.593,0.875
				c0.148,0.333,0.221,0.687,0.221,1.063C14.835,38.47,14.762,38.83,14.614,39.163z"/>
		</g>
	</g>
</g>
</svg>
